<?xml version="1.0" encoding="utf-8"?>
<!-- Generator: Adobe Illustrator 23.0.3, SVG Export Plug-In . SVG Version: 6.00 Build 0)  -->
<svg version="1.1" id="Layer_1" xmlns="http://www.w3.org/2000/svg" xmlns:xlink="http://www.w3.org/1999/xlink" x="0px" y="0px"
	 viewBox="0 0 331.2 331.2" style="enable-background:new 0 0 331.2 331.2;" xml:space="preserve">
<style type="text/css">
	.st0{display:none;}
	.st1{fill:#FFFFFF;stroke:#FFFFFF;stroke-miterlimit:10;}
</style>
<g id="REF" class="st0">
	
		<image style="display:inline;overflow:visible;enable-background:new    ;" width="225" height="225" xlink:href="8106A7EA.png"  transform="matrix(1.3557 0 0 1.3557 13.0844 13.0844)">
	</image>
</g>
<g id="thunderstorm">
</g>
<g id="wind">
</g>
<g id="rain">
</g>
<g id="moon">
	<g>
		<path class="st1" d="M126.4,32.8c-4.2,9.3-8.7,21-12.2,34.2c-11.9,44.9-6.6,86.4,15.4,120.1c36.9,56.7,100.4,69.3,136.9,71.7
			c-25.8,27.7-62.1,43.8-100.7,43.8c-36.8,0-71.4-14.3-97.4-40.3c-26-26-40.3-60.6-40.3-97.4c0-34.1,12.5-66.8,35.3-92.1
			C80.4,53.7,102.3,40,126.4,32.8 M148.7,16C74.1,24.5,16,87.9,16,164.8c0,82.7,67,149.7,149.7,149.7c52.4,0,98.5-26.9,125.2-67.6
			c0,0-3.8,0.3-10.2,0.3c-27.1,0-101.5-5.8-141.2-66.7C90.6,105.3,148.7,16,148.7,16L148.7,16z"/>
	</g>
	<g>
		<line class="st1" x1="194.5" y1="82.3" x2="215.3" y2="54.8"/>
		<line class="st1" x1="218.7" y1="78.9" x2="191.1" y2="58.2"/>
	</g>
	<g>
		<line class="st1" x1="287.8" y1="170.5" x2="285.2" y2="152.1"/>
		<line class="st1" x1="295.6" y1="160" x2="277.3" y2="162.6"/>
	</g>
	<g>
		<line class="st1" x1="308.9" y1="42.5" x2="311.2" y2="39.4"/>
		<line class="st1" x1="311.6" y1="42.1" x2="308.5" y2="39.8"/>
	</g>
	<g>
		<line class="st1" x1="207.3" y1="85.6" x2="202.5" y2="51.5"/>
		<line class="st1" x1="222" y1="66.1" x2="187.8" y2="70.9"/>
	</g>
	<g>
		<line class="st1" x1="293.9" y1="166.9" x2="279" y2="155.7"/>
		<line class="st1" x1="292" y1="153.9" x2="280.9" y2="168.7"/>
	</g>
</g>
<g id="sunset">
</g>
<g id="sun">
</g>
<g id="woodpecker">
	<g id="front_x5F_leg_3_">
	</g>
</g>
<g id="turkey">
</g>
<g id="raven">
	<g id="rear_x5F_leg">
	</g>
	<g id="beak_5_">
	</g>
	<g id="foreleg">
	</g>
</g>
<g id="mosquito">
</g>
<g id="mallard_x5F_duck">
	<g id="beak_4_">
	</g>
</g>
<g id="frog">
	<g id="eye_1_">
	</g>
</g>
<g id="cricket">
</g>
<g id="canada_x5F_goose">
	<g id="beak_1_">
	</g>
</g>
<g id="coyote">
</g>
<g id="goldfinch">
	<g id="beak_8_">
	</g>
</g>
<g id="owl">
	<g id="right_x5F_eye">
	</g>
	<g id="left_x5F_eye">
	</g>
	<g id="foot">
	</g>
</g>
<g id="fox">
	<g id="right_x5F_ear">
	</g>
	<g id="left_x5F_ear">
	</g>
	<g id="eye">
	</g>
</g>
</svg>
