<?xml version="1.0" encoding="UTF-8" standalone="no"?>
<!DOCTYPE svg PUBLIC "-//W3C//DTD SVG 1.1//EN" "http://www.w3.org/Graphics/SVG/1.1/DTD/svg11.dtd">
<svg width="100%" height="100%" viewBox="0 0 204 77" version="1.1" xmlns="http://www.w3.org/2000/svg" xmlns:xlink="http://www.w3.org/1999/xlink" xml:space="preserve" xmlns:serif="http://www.serif.com/" style="fill-rule:evenodd;clip-rule:evenodd;stroke-linejoin:round;stroke-miterlimit:1.41421;">
    <g transform="matrix(1,0,0,1,-141,-2280)">
        <path d="M257.4,2323.83L258.072,2328.52C258.072,2328.52 258.072,2329.06 258.072,2329.19C257.938,2329.33 257.803,2329.33 257.669,2329.33C257.534,2329.46 257.268,2329.19 256.999,2328.52C254.587,2324.36 251.239,2322.22 247.085,2322.22C243.871,2322.22 241.19,2323.16 239.316,2325.3C237.44,2327.31 236.502,2330.13 236.502,2333.61C236.502,2337.63 237.44,2340.99 239.584,2343.53C241.728,2346.08 244.541,2347.42 247.889,2347.42C249.766,2347.42 251.64,2346.89 253.517,2345.81C255.391,2344.74 256.73,2343.53 257.534,2342.06C257.803,2341.39 258.072,2340.99 258.204,2340.99C258.473,2340.99 258.607,2341.12 258.607,2341.39L258.607,2341.52L258.473,2342.06L258.072,2344.34L257.938,2344.74C257.803,2345.14 257.534,2345.41 256.999,2345.81C254.052,2347.69 250.702,2348.63 247.085,2348.63C242.933,2348.63 239.584,2347.42 237.038,2345.01C234.493,2342.46 233.154,2339.24 233.154,2335.22C233.154,2331.07 234.493,2327.71 237.173,2325.03C239.852,2322.35 243.202,2321.01 247.085,2321.01C249.766,2321.01 252.444,2321.68 254.722,2322.89L255.526,2323.29L255.792,2323.43L256.061,2323.56C256.195,2323.56 256.33,2323.56 256.33,2323.43C256.73,2323.16 256.865,2323.16 256.999,2323.16C257.134,2323.16 257.268,2323.29 257.4,2323.83Z" style="fill:rgb(34,31,31);fill-rule:nonzero;"/>
        <path d="M268.522,2331.87C270.797,2331.87 272.808,2332.68 274.548,2334.28C276.156,2335.89 276.96,2337.9 276.96,2340.18C276.96,2342.59 276.156,2344.61 274.548,2346.21C272.94,2347.82 270.797,2348.63 268.253,2348.63C265.841,2348.63 263.832,2347.82 262.224,2346.35C260.616,2344.74 259.812,2342.73 259.812,2340.32C259.812,2337.9 260.616,2335.89 262.358,2334.28C264.098,2332.68 266.11,2331.87 268.522,2331.87ZM267.984,2332.54C266.376,2332.54 265.037,2333.21 264.098,2334.42C263.028,2335.62 262.625,2337.23 262.625,2339.11C262.625,2341.66 263.162,2343.67 264.502,2345.41C265.706,2347.02 267.18,2347.82 269.057,2347.82C270.665,2347.82 271.87,2347.29 272.808,2346.08C273.746,2344.87 274.282,2343.27 274.282,2341.26C274.282,2338.71 273.612,2336.56 272.539,2334.95C271.332,2333.35 269.861,2332.54 267.984,2332.54Z" style="fill:rgb(34,31,31);fill-rule:nonzero;"/>
        <path d="M283.255,2344.34C283.524,2345.28 284.062,2345.95 284.731,2346.48C285.535,2347.02 286.337,2347.29 287.141,2347.29C288.348,2347.29 289.286,2346.89 290.222,2346.21C291.161,2345.54 291.562,2344.87 291.562,2343.94L291.562,2334.69C291.562,2333.88 291.43,2333.48 291.161,2333.08C290.892,2332.81 290.491,2332.68 289.822,2332.68C289.418,2332.68 289.152,2332.68 289.152,2332.41C289.152,2332.14 289.418,2331.87 289.822,2331.87L291.83,2331.87C292.366,2331.74 292.769,2331.74 293.438,2331.47C293.57,2331.47 293.705,2331.47 293.839,2331.47C294.108,2331.33 294.242,2331.6 294.242,2332.14L294.242,2344.74C294.242,2345.81 294.377,2346.35 294.643,2346.75C294.778,2347.02 295.178,2347.15 295.85,2347.15L296.52,2347.15C296.786,2347.15 296.921,2347.29 296.921,2347.42C296.921,2347.82 296.52,2347.96 295.85,2347.96L294.511,2348.09C293.705,2348.09 293.17,2348.09 292.903,2348.22C292.634,2348.22 292.366,2348.36 292.231,2348.36C291.83,2348.36 291.562,2347.69 291.562,2346.48L291.562,2345.68C290.088,2347.69 288.214,2348.63 286.07,2348.63C284.328,2348.63 282.854,2348.09 281.782,2347.02C280.846,2345.81 280.31,2344.34 280.31,2342.33L280.31,2340.99L280.31,2334.55C280.31,2333.88 280.176,2333.48 279.907,2333.21C279.638,2332.94 279.103,2332.81 278.434,2332.68C278.03,2332.68 277.898,2332.54 277.898,2332.27C277.898,2332.14 278.299,2332 279.103,2331.87L280.577,2331.87C280.98,2331.87 281.381,2331.74 282.05,2331.6C282.185,2331.47 282.319,2331.47 282.454,2331.47C282.854,2331.47 282.989,2331.87 282.989,2332.41L282.989,2341.52C282.989,2341.52 282.854,2343.4 283.255,2344.34Z" style="fill:rgb(34,31,31);fill-rule:nonzero;"/>
        <path d="M311.791,2348.22C311.791,2348.22 310.718,2348.22 310.586,2348.22C310.452,2348.09 310.452,2348.09 310.452,2347.96C310.452,2347.69 310.586,2347.55 310.718,2347.55L311.39,2347.42C311.926,2347.29 312.192,2346.75 312.192,2345.95L312.192,2339.24C312.192,2337.5 311.657,2336.03 310.853,2335.09C310.051,2334.15 308.844,2333.61 307.37,2333.61C306.3,2333.61 305.362,2333.88 304.423,2334.55C303.619,2335.22 303.218,2335.89 303.218,2336.7L303.218,2345.68C303.35,2346.89 304.154,2347.42 305.897,2347.55C306.432,2347.55 306.566,2347.69 306.566,2347.96C306.566,2348.22 306.432,2348.36 306.166,2348.36C305.897,2348.36 305.628,2348.22 305.093,2348.22L299.602,2348.22C299.198,2348.22 298.93,2348.36 298.795,2348.36C298.529,2348.36 298.529,2348.22 298.529,2347.96C298.529,2347.82 298.663,2347.69 298.795,2347.55C299.467,2347.42 300.002,2347.15 300.137,2346.75C300.403,2346.48 300.538,2345.81 300.538,2345.14L300.538,2336.29C300.538,2335.36 300.403,2334.82 300.137,2334.42C300.002,2334.15 299.602,2334.01 298.93,2334.01L298.128,2334.01C297.994,2334.01 297.859,2334.01 297.859,2333.88C297.725,2333.88 297.59,2333.75 297.59,2333.61C297.59,2333.48 297.859,2333.35 298.128,2333.21C299.064,2333.08 299.868,2332.81 300.672,2332.41L301.745,2331.87C302.146,2331.74 302.28,2331.6 302.414,2331.6C302.681,2331.47 302.815,2331.47 302.95,2331.47C303.084,2331.47 303.218,2331.6 303.218,2332L303.218,2334.95C304.958,2332.81 306.835,2331.87 308.575,2331.87C310.718,2331.87 312.326,2332.68 313.534,2334.42C314.338,2335.49 314.738,2337.37 314.738,2339.78L314.738,2345.01L314.873,2345.95C315.007,2346.75 315.542,2347.29 316.481,2347.42L317.285,2347.55C317.686,2347.55 317.82,2347.69 317.82,2347.96C317.82,2348.22 317.551,2348.36 317.15,2348.36C317.016,2348.36 316.75,2348.22 316.481,2348.22C315.943,2348.22 315.142,2348.22 314.069,2348.22C314.069,2348.22 312.326,2348.22 311.791,2348.22Z" style="fill:rgb(34,31,31);fill-rule:nonzero;"/>
        <path d="M329.208,2335.22L334.164,2346.48C334.565,2347.69 334.834,2348.49 334.834,2348.9C334.834,2349.57 334.43,2350.64 333.763,2351.84C333.091,2353.05 332.29,2354.12 331.483,2355.06C331.351,2355.2 331.217,2355.33 331.217,2355.46C331.217,2355.6 331.618,2355.73 332.556,2355.73C333.36,2355.73 333.763,2355.73 333.895,2355.6C334.03,2355.6 334.164,2355.46 334.298,2355.06L334.43,2354.39L341.398,2334.95C341.532,2334.42 341.798,2333.88 342.067,2333.75C342.202,2333.48 342.605,2333.21 343.14,2333.08C343.406,2332.94 343.541,2332.81 343.541,2332.54C343.541,2332.41 343.406,2332.27 343.14,2332.27L337.646,2332.27C337.38,2332.27 337.246,2332.27 337.246,2332.54C337.246,2332.81 337.512,2332.94 337.781,2332.94C338.585,2333.21 339.12,2333.48 339.389,2333.75C339.655,2334.01 339.79,2334.42 339.79,2335.09C339.79,2335.76 339.655,2336.43 339.389,2337.37L336.442,2345.41L332.556,2336.29C332.155,2335.36 332.021,2334.55 332.021,2334.15C332.021,2333.61 332.422,2333.21 333.091,2333.08C333.895,2333.08 334.164,2332.81 334.164,2332.68C334.164,2332.41 334.03,2332.27 333.629,2332.27C333.494,2332.27 333.36,2332.27 332.957,2332.27C331.886,2332.27 331.351,2332.27 331.351,2332.27L323.045,2332.27C323.045,2332.27 323.448,2331.2 323.714,2330.39L330.547,2310.96C330.814,2310.42 331.082,2309.89 331.217,2309.62C331.483,2309.48 331.886,2309.22 332.29,2308.95C332.556,2308.95 332.69,2308.68 332.69,2308.55C332.69,2308.28 332.556,2308.28 332.29,2308.28L327.732,2308.28C327.331,2308.28 327.065,2308.28 326.93,2308.14C326.662,2308.14 326.527,2308.28 326.527,2308.55C326.527,2308.81 326.662,2308.95 326.93,2308.95C327.866,2309.22 328.404,2309.35 328.67,2309.62C328.939,2310.02 329.074,2310.42 329.074,2311.09C329.074,2311.63 328.939,2312.43 328.67,2313.37L325.723,2321.41L321.84,2312.3C321.437,2311.23 321.168,2310.56 321.168,2310.15C321.168,2309.62 321.571,2309.22 322.375,2309.08C323.045,2309.08 323.448,2308.81 323.448,2308.68C323.448,2308.41 323.314,2308.28 322.91,2308.28L316.615,2308.28C316.346,2308.28 316.078,2308.41 316.078,2308.68C316.078,2308.81 316.212,2308.95 316.481,2308.95C317.016,2309.08 317.285,2309.35 317.551,2309.62C317.82,2309.89 318.089,2310.42 318.49,2311.23L323.314,2322.49C323.849,2323.69 324.115,2324.5 324.115,2324.9C324.115,2325.57 323.714,2326.64 323.045,2327.85C322.375,2329.06 321.302,2330.53 320.366,2331.33L320.232,2331.47C319.694,2332.14 319.159,2332.54 318.49,2333.21C318.089,2333.48 317.954,2333.75 317.954,2333.88C317.954,2334.01 318.089,2334.15 318.49,2334.15L320.232,2334.15L320.232,2343.94C320.232,2347.15 321.706,2348.63 324.653,2348.63C325.591,2348.63 326.527,2348.36 327.466,2347.96C328.538,2347.42 329.074,2347.02 329.074,2346.48C329.074,2346.35 328.939,2346.21 328.805,2346.35L328.67,2346.35L327.732,2346.89C327.197,2347.15 326.527,2347.29 325.723,2347.29C324.653,2347.29 323.983,2347.02 323.448,2346.48C323.045,2346.08 322.91,2345.28 322.91,2343.94L322.91,2334.15L328.67,2334.15C328.67,2334.15 328.939,2334.42 329.208,2335.22Z" style="fill:rgb(34,31,31);fill-rule:nonzero;"/>
        <path d="M284.863,2317.66C284.863,2318.87 284.731,2319.81 284.328,2320.21C282.588,2322.35 280.176,2323.43 277.229,2323.43C274.013,2323.43 271.466,2322.22 269.323,2319.67C267.18,2317.12 266.11,2313.91 266.11,2310.15C266.11,2306.67 267.048,2303.72 268.922,2301.44C270.665,2299.29 273.074,2298.22 276.022,2298.22C278.434,2298.22 280.577,2298.76 282.72,2300.1C284.863,2301.44 286.337,2303.05 287.41,2305.19C287.544,2305.33 287.678,2305.46 287.81,2305.46C288.079,2305.46 288.214,2305.33 288.214,2305.06C288.214,2304.79 288.214,2304.66 288.079,2304.39C288.079,2303.99 287.945,2303.45 287.81,2302.91L287.678,2301.17C287.544,2300.5 287.544,2300.1 287.544,2299.83C287.544,2299.16 287.41,2298.89 287.141,2298.89C287.141,2298.89 287.006,2298.89 286.874,2299.03L286.471,2299.29C286.337,2299.43 286.205,2299.56 286.07,2299.56C286.07,2299.56 285.936,2299.43 285.802,2299.29C284.731,2298.62 283.39,2298.09 281.65,2297.69C279.907,2297.28 278.299,2297.02 276.826,2297.02C272.808,2297.02 269.458,2298.36 266.914,2301.17C264.233,2303.85 262.894,2307.2 262.894,2311.36C262.894,2315.25 264.098,2318.47 266.645,2320.88C269.057,2323.43 272.27,2324.63 276.156,2324.63C279.103,2324.63 281.782,2323.96 284.328,2322.49L285.667,2321.68C286.337,2321.28 286.874,2321.01 287.275,2321.01C287.544,2321.01 287.678,2320.88 287.81,2320.88C287.81,2320.88 287.945,2320.74 287.945,2320.61L287.945,2319.94L287.945,2313.64L287.945,2313.1C287.945,2311.9 288.348,2311.23 289.418,2310.96C289.687,2310.82 289.954,2310.69 289.954,2310.42C289.954,2310.15 289.822,2310.15 289.553,2310.15C289.286,2310.15 288.883,2310.15 287.945,2310.15C287.544,2310.15 286.471,2310.29 284.462,2310.29L282.989,2310.15L282.185,2310.15C281.782,2310.15 281.515,2310.29 281.515,2310.56C281.515,2310.82 281.782,2310.96 282.319,2311.09C283.39,2311.09 284.062,2311.36 284.328,2311.63C284.731,2311.9 284.863,2312.43 284.863,2313.24L284.863,2317.66Z" style="fill:rgb(34,31,31);fill-rule:nonzero;"/>
        <path d="M296.52,2311.36C297.994,2309.08 299.467,2307.74 300.806,2307.74C301.21,2307.74 301.745,2308.14 302.28,2308.55C302.95,2308.95 303.35,2309.35 303.35,2309.75C303.35,2309.89 303.218,2310.29 302.681,2310.82C302.28,2311.23 302.011,2311.49 301.877,2311.49C301.745,2311.49 301.476,2311.36 300.941,2311.09C300.403,2310.69 299.868,2310.56 299.333,2310.56C298.529,2310.56 297.994,2310.82 297.456,2311.36C296.921,2311.9 296.652,2312.7 296.652,2313.51L296.652,2320.48C296.652,2321.55 296.786,2322.35 297.055,2322.75C297.324,2323.29 297.859,2323.43 298.529,2323.56L299.602,2323.69C300.002,2323.69 300.271,2323.83 300.271,2323.96C300.271,2324.23 300.002,2324.36 299.602,2324.36C299.602,2324.36 299.198,2324.36 298.795,2324.36C298.529,2324.23 298.128,2324.23 297.59,2324.23L296.251,2324.23L295.447,2324.23C294.377,2324.23 293.705,2324.23 293.17,2324.36C292.903,2324.36 292.634,2324.5 292.5,2324.5C292.231,2324.5 291.965,2324.36 291.965,2324.1C291.965,2323.83 292.231,2323.69 292.634,2323.69C293.17,2323.56 293.57,2323.29 293.705,2322.89C293.839,2322.62 293.974,2321.82 293.974,2320.61L293.974,2312.3C293.974,2310.82 293.17,2310.02 291.83,2310.02L291.161,2310.15C290.76,2310.15 290.626,2310.02 290.626,2309.75C290.626,2309.48 290.76,2309.48 290.892,2309.35C291.026,2309.35 291.161,2309.35 291.43,2309.22C292.634,2309.22 294.108,2308.55 295.716,2307.61C295.85,2307.47 295.985,2307.47 296.117,2307.47C296.52,2307.34 296.652,2307.61 296.652,2308.01L296.52,2308.41" style="fill:rgb(34,31,31);fill-rule:nonzero;"/>
        <path d="M305.762,2314.44L305.762,2314.85C305.762,2317.12 306.3,2319 307.639,2320.48C308.844,2321.95 310.318,2322.75 312.06,2322.75C313.534,2322.75 315.007,2322.08 316.75,2320.88C316.882,2320.74 316.882,2320.74 317.016,2320.74C317.15,2320.74 317.285,2320.74 317.285,2321.01C317.285,2321.41 316.882,2321.95 315.943,2322.62C314.203,2323.96 312.461,2324.63 310.586,2324.63C308.443,2324.63 306.701,2323.83 305.227,2322.22C303.888,2320.61 303.084,2318.6 303.084,2316.32C303.084,2314.04 303.888,2312.03 305.362,2310.29C306.835,2308.68 308.575,2307.74 310.586,2307.74C312.73,2307.74 314.47,2308.68 315.677,2310.56C316.078,2310.96 316.346,2311.49 316.615,2312.3C317.016,2313.1 317.15,2313.64 317.15,2313.91C317.15,2314.31 316.75,2314.58 315.943,2314.58L314.47,2314.44L313.13,2314.44L305.762,2314.44ZM305.897,2313.37L312.461,2313.37C313.534,2313.37 314.069,2313.24 314.069,2312.7C314.069,2311.76 313.534,2310.82 312.73,2309.89C311.791,2309.08 310.853,2308.68 309.782,2308.68C308.71,2308.68 307.906,2309.08 307.236,2309.89C306.432,2310.82 306.031,2312.03 305.897,2313.37Z" style="fill:rgb(34,31,31);fill-rule:nonzero;"/>
        <path d="M219.756,2330.66L226.321,2282.54L194.169,2293.93C206.896,2302.38 216.14,2315.38 219.756,2330.66Z" style="fill:rgb(150,0,94);fill-rule:nonzero;"/>
        <path d="M217.479,2344.61C217.479,2323.69 206.226,2305.46 189.48,2295.54L142.324,2312.16L144.066,2316.18C148.888,2313.37 154.515,2311.76 160.543,2311.76C178.628,2311.76 193.365,2326.51 193.365,2344.61C193.365,2345.81 193.231,2347.02 193.097,2348.09L217.479,2348.09C217.479,2347.02 217.479,2345.81 217.479,2344.61Z" style="fill:rgb(150,0,94);fill-rule:nonzero;"/>
        <path d="M160.543,2315.11C154.917,2315.11 149.826,2316.59 145.405,2319.27L149.558,2328.79C152.639,2326.64 156.39,2325.3 160.543,2325.3C171.126,2325.3 179.834,2334.01 179.834,2344.61C179.834,2345.81 179.701,2347.02 179.433,2348.09L189.748,2348.09C189.882,2347.02 190.016,2345.81 190.016,2344.61C190.016,2328.39 176.754,2315.11 160.543,2315.11Z" style="fill:rgb(150,0,94);fill-rule:nonzero;"/>
        <path d="M176.754,2344.61C176.754,2335.62 169.519,2328.39 160.543,2328.39C156.792,2328.39 153.444,2329.59 150.764,2331.6L153.175,2337.23C155.05,2335.36 157.596,2334.28 160.409,2334.28C166.17,2334.28 170.858,2338.97 170.858,2344.61C170.858,2345.81 170.591,2347.02 170.189,2348.09L176.351,2348.09C176.619,2347.02 176.754,2345.81 176.754,2344.61Z" style="fill:rgb(150,0,94);fill-rule:nonzero;"/>
        <path d="M160.543,2336.7C157.998,2336.7 155.721,2337.9 154.247,2339.78L157.864,2348.09L167.644,2348.09C168.046,2347.02 168.447,2345.95 168.447,2344.61C168.447,2340.32 164.83,2336.7 160.543,2336.7Z" style="fill:rgb(150,0,94);fill-rule:nonzero;"/>
    </g>
</svg>
