<?xml version="1.0" encoding="utf-8"?>
<!-- Generator: Adobe Illustrator 23.0.3, SVG Export Plug-In . SVG Version: 6.00 Build 0)  -->
<svg version="1.1" id="Layer_1" xmlns:serif="http://www.serif.com/"
	 xmlns="http://www.w3.org/2000/svg" xmlns:xlink="http://www.w3.org/1999/xlink" x="0px" y="0px" viewBox="0 0 1920 715.3"
	 style="enable-background:new 0 0 1920 715.3;" xml:space="preserve">
<style type="text/css">
	.st0{fill:#FFFFFF;}
</style>
<g transform="matrix(1,0,0,1,-141,-2280)">
	<path class="st0" d="M1236.5,2695.1l6.3,44.1c0,0,0,5.1,0,6.3c-1.3,1.3-2.5,1.3-3.8,1.3c-1.3,1.2-3.8-1.3-6.3-7.6
		c-22.7-39.2-54.2-59.3-93.3-59.3c-30.2,0-55.5,8.8-73.1,29c-17.7,18.9-26.5,45.5-26.5,78.2c0,37.8,8.8,69.5,29,93.4
		c20.2,24,46.7,36.6,78.2,36.6c17.7,0,35.3-5,53-15.2c17.6-10.1,30.2-21.5,37.8-35.3c2.5-6.3,5.1-10.1,6.3-10.1
		c2.5,0,3.8,1.2,3.8,3.8v1.2l-1.3,5.1l-3.8,21.5l-1.3,3.8c-1.3,3.8-3.8,6.3-8.8,10.1c-27.7,17.7-59.3,26.5-93.3,26.5
		c-39.1,0-70.6-11.4-94.6-34.1c-24-24-36.6-54.3-36.6-92.1c0-39.1,12.6-70.7,37.8-95.9c25.2-25.2,56.7-37.8,93.3-37.8
		c25.2,0,50.4,6.3,71.9,17.7l7.6,3.8l2.5,1.3l2.5,1.2c1.3,0,2.5,0,2.5-1.2c3.8-2.5,5-2.5,6.3-2.5
		C1234,2688.8,1235.3,2690,1236.5,2695.1z"/>
	<path class="st0" d="M1341.2,2770.8c21.4,0,40.3,7.6,56.7,22.7c15.1,15.2,22.7,34.1,22.7,55.5c0,22.7-7.6,41.7-22.7,56.8
		c-15.1,15.2-35.3,22.8-59.2,22.8c-22.7,0-41.6-7.6-56.7-21.5c-15.1-15.2-22.7-34.1-22.7-56.8c0-22.8,7.6-41.7,24-56.8
		C1299.6,2778.4,1318.5,2770.8,1341.2,2770.8z M1336.1,2777.1c-15.1,0-27.7,6.3-36.6,17.7c-10.1,11.3-13.9,26.4-13.9,44.1
		c0,24,5.1,42.9,17.7,59.3c11.3,15.2,25.2,22.7,42.9,22.7c15.1,0,26.5-5,35.3-16.4c8.8-11.4,13.9-26.4,13.9-45.4
		c0-24-6.3-44.2-16.4-59.4C1367.7,2784.7,1353.8,2777.1,1336.1,2777.1z"/>
	<path class="st0" d="M1479.9,2888.1c2.5,8.8,7.6,15.2,13.9,20.1c7.6,5.1,15.1,7.6,22.7,7.6c11.4,0,20.2-3.8,29-10.2
		c8.8-6.3,12.6-12.6,12.6-21.4v-87.1c0-7.6-1.2-11.4-3.8-15.2c-2.5-2.5-6.3-3.8-12.6-3.8c-3.8,0-6.3,0-6.3-2.5
		c0-2.5,2.5-5.1,6.3-5.1h18.9c5-1.2,8.8-1.2,15.1-3.8c1.2,0,2.5,0,3.8,0c2.5-1.3,3.8,1.2,3.8,6.3v118.6c0,10.1,1.3,15.2,3.8,18.9
		c1.3,2.5,5,3.8,11.4,3.8h6.3c2.5,0,3.8,1.3,3.8,2.5c0,3.8-3.8,5.1-10.1,5.1l-12.6,1.2c-7.6,0-12.6,0-15.1,1.2
		c-2.5,0-5.1,1.3-6.3,1.3c-3.8,0-6.3-6.3-6.3-17.7v-7.5c-13.9,18.9-31.5,27.8-51.7,27.8c-16.4,0-30.3-5.1-40.4-15.2
		c-8.8-11.4-13.9-25.2-13.9-44.1v-12.6V2796c0-6.3-1.3-10.1-3.8-12.6c-2.5-2.5-7.6-3.8-13.9-5c-3.8,0-5-1.3-5-3.9
		c0-1.2,3.8-2.5,11.3-3.8h13.9c3.8,0,7.6-1.2,13.9-2.5c1.3-1.2,2.5-1.2,3.8-1.2c3.8,0,5,3.8,5,8.8v85.7
		C1477.4,2861.6,1476.1,2879.3,1479.9,2888.1z"/>
	<path class="st0" d="M1748.4,2924.7c0,0-10.1,0-11.3,0c-1.3-1.2-1.3-1.2-1.3-2.4c0-2.5,1.3-3.9,2.5-3.9l6.3-1.2
		c5-1.2,7.5-6.3,7.5-13.8v-63.2c0-16.4-5-30.2-12.6-39.1c-7.5-8.8-18.9-13.9-32.8-13.9c-10.1,0-18.9,2.5-27.7,8.8
		c-7.6,6.3-11.3,12.6-11.3,20.2v84.5c1.2,11.4,8.8,16.4,25.2,17.6c5,0,6.3,1.3,6.3,3.9c0,2.4-1.3,3.8-3.8,3.8
		c-2.5,0-5.1-1.3-10.1-1.3h-51.7c-3.8,0-6.3,1.3-7.6,1.3c-2.5,0-2.5-1.3-2.5-3.8c0-1.3,1.3-2.5,2.5-3.9c6.3-1.2,11.4-3.8,12.6-7.5
		c2.5-2.5,3.8-8.8,3.8-15.2v-83.3c0-8.8-1.3-13.8-3.8-17.6c-1.3-2.5-5-3.9-11.4-3.9h-7.5c-1.3,0-2.5,0-2.5-1.2
		c-1.3,0-2.5-1.2-2.5-2.5c0-1.2,2.5-2.4,5.1-3.8c8.8-1.2,16.4-3.8,23.9-7.5l10.1-5.1c3.8-1.2,5-2.5,6.3-2.5c2.5-1.2,3.8-1.2,5-1.2
		c1.3,0,2.5,1.2,2.5,5v27.8c16.4-20.1,34-29,50.4-29c20.2,0,35.3,7.6,46.7,24c7.6,10.1,11.3,27.8,11.3,50.4v49.2l1.3,8.8
		c1.3,7.5,6.3,12.6,15.1,13.8l7.6,1.2c3.8,0,5,1.3,5,3.9c0,2.4-2.5,3.8-6.3,3.8c-1.3,0-3.8-1.3-6.3-1.3c-5.1,0-12.6,0-22.7,0
		C1769.9,2924.7,1753.5,2924.7,1748.4,2924.7z"/>
	<path class="st0" d="M1912.4,2802.3l46.6,106c3.8,11.4,6.3,18.9,6.3,22.8c0,6.3-3.8,16.4-10.1,27.7c-6.3,11.4-13.9,21.5-21.5,30.3
		c-1.2,1.3-2.5,2.5-2.5,3.8c0,1.3,3.8,2.5,12.6,2.5c7.6,0,11.4,0,12.6-1.2c1.3,0,2.5-1.3,3.8-5.1l1.2-6.3l65.6-183
		c1.3-5,3.8-10.1,6.3-11.3c1.3-2.5,5.1-5.1,10.1-6.3c2.5-1.3,3.8-2.5,3.8-5.1c0-1.2-1.3-2.5-3.8-2.5h-51.7c-2.5,0-3.8,0-3.8,2.5
		c0,2.5,2.5,3.8,5,3.8c7.6,2.5,12.6,5.1,15.1,7.6c2.5,2.4,3.8,6.3,3.8,12.6c0,6.3-1.3,12.6-3.8,21.5l-27.7,75.7l-36.6-85.8
		c-3.8-8.8-5-16.4-5-20.1c0-5.1,3.8-8.8,10.1-10.1c7.6,0,10.1-2.5,10.1-3.8c0-2.5-1.3-3.9-5-3.9c-1.3,0-2.5,0-6.3,0
		c-10.1,0-15.1,0-15.1,0h-78.2c0,0,3.8-10.1,6.3-17.7L1925,2574c2.5-5.1,5-10.1,6.3-12.6c2.5-1.3,6.3-3.8,10.1-6.3
		c2.5,0,3.8-2.5,3.8-3.8c0-2.5-1.3-2.5-3.8-2.5h-42.9c-3.8,0-6.3,0-7.5-1.3c-2.5,0-3.8,1.3-3.8,3.9c0,2.4,1.3,3.8,3.8,3.8
		c8.8,2.5,13.9,3.8,16.4,6.3c2.5,3.8,3.8,7.5,3.8,13.8c0,5.1-1.3,12.6-3.8,21.5l-27.7,75.7l-36.5-85.7c-3.8-10.1-6.3-16.4-6.3-20.2
		c0-5,3.8-8.8,11.4-10.1c6.3,0,10.1-2.5,10.1-3.8c0-2.5-1.3-3.8-5.1-3.8h-59.2c-2.5,0-5.1,1.2-5.1,3.8c0,1.2,1.3,2.5,3.8,2.5
		c5,1.2,7.6,3.8,10.1,6.3c2.5,2.5,5.1,7.5,8.8,15.2l45.4,106c5,11.3,7.5,18.9,7.5,22.7c0,6.3-3.8,16.4-10.1,27.8
		c-6.3,11.4-16.4,25.2-25.2,32.8l-1.3,1.3c-5.1,6.3-10.1,10.1-16.4,16.4c-3.8,2.5-5,5.1-5,6.3c0,1.2,1.3,2.5,5,2.5h16.4v92.1
		c0,30.2,13.9,44.1,41.6,44.1c8.8,0,17.6-2.5,26.5-6.3c10.1-5.1,15.1-8.8,15.1-13.9c0-1.2-1.3-2.5-2.5-1.2h-1.3l-8.8,5.1
		c-5,2.4-11.3,3.8-18.9,3.8c-10.1,0-16.4-2.5-21.4-7.6c-3.8-3.8-5.1-11.3-5.1-23.9v-92.1h54.2
		C1907.3,2792.2,1909.8,2794.8,1912.4,2802.3z"/>
	<path class="st0" d="M1495,2637c0,11.4-1.2,20.2-5,24c-16.4,20.1-39.1,30.3-66.8,30.3c-30.3,0-54.2-11.4-74.4-35.4
		c-20.2-24-30.2-54.2-30.2-89.6c0-32.8,8.8-60.5,26.5-82c16.4-20.2,39.1-30.3,66.8-30.3c22.7,0,42.9,5.1,63,17.7
		c20.2,12.6,34,27.8,44.1,47.9c1.3,1.3,2.5,2.5,3.8,2.5c2.5,0,3.8-1.2,3.8-3.8c0-2.5,0-3.8-1.3-6.3c0-3.8-1.3-8.8-2.5-13.9
		l-1.2-16.4c-1.3-6.3-1.3-10.1-1.3-12.6c0-6.3-1.3-8.8-3.8-8.8c0,0-1.3,0-2.5,1.3l-3.8,2.4c-1.3,1.3-2.5,2.5-3.8,2.5
		c0,0-1.3-1.2-2.5-2.5c-10.1-6.3-22.7-11.3-39.1-15.1c-16.4-3.9-31.5-6.3-45.4-6.3c-37.8,0-69.3,12.6-93.3,39.1
		c-25.2,25.2-37.8,56.8-37.8,95.9c0,36.6,11.3,66.9,35.3,89.6c22.7,24,52.9,35.3,89.5,35.3c27.7,0,53-6.3,76.9-20.1l12.6-7.6
		c6.3-3.8,11.4-6.3,15.1-6.3c2.5,0,3.8-1.2,5-1.2c0,0,1.3-1.3,1.3-2.5v-6.3v-59.3v-5.1c0-11.3,3.8-17.6,13.9-20.1
		c2.5-1.3,5-2.5,5-5.1c0-2.5-1.2-2.5-3.8-2.5c-2.5,0-6.3,0-15.1,0c-3.8,0-13.9,1.3-32.8,1.3l-13.9-1.3h-7.6c-3.8,0-6.3,1.3-6.3,3.9
		c0,2.4,2.5,3.8,7.6,5c10.1,0,16.4,2.5,18.9,5.1c3.8,2.5,5,7.5,5,15.2V2637z"/>
	<path class="st0" d="M1604.7,2577.7c13.9-21.5,27.7-34.1,40.3-34.1c3.8,0,8.8,3.8,13.9,7.6c6.3,3.8,10.1,7.5,10.1,11.3
		c0,1.3-1.2,5.1-6.3,10.1c-3.8,3.9-6.3,6.3-7.6,6.3c-1.2,0-3.8-1.2-8.8-3.8c-5.1-3.8-10.1-5-15.1-5c-7.6,0-12.6,2.4-17.7,7.5
		c-5,5.1-7.6,12.6-7.6,20.2v65.6c0,10.1,1.3,17.6,3.8,21.4c2.5,5.1,7.6,6.4,13.9,7.6l10.1,1.2c3.8,0,6.3,1.3,6.3,2.5
		c0,2.5-2.5,3.8-6.3,3.8c0,0-3.8,0-7.6,0c-2.5-1.2-6.3-1.2-11.3-1.2h-12.6h-7.6c-10.1,0-16.4,0-21.4,1.2c-2.5,0-5,1.3-6.3,1.3
		c-2.5,0-5-1.3-5-3.8c0-2.5,2.5-3.9,6.3-3.9c5-1.2,8.8-3.8,10.1-7.5c1.3-2.5,2.5-10.1,2.5-21.5v-78.2c0-13.9-7.6-21.5-20.2-21.5
		l-6.3,1.2c-3.8,0-5-1.2-5-3.8c0-2.5,1.3-2.5,2.5-3.8c1.3,0,2.5,0,5.1-1.2c11.3,0,25.2-6.3,40.3-15.2c1.3-1.3,2.5-1.3,3.8-1.3
		c3.8-1.2,5,1.3,5,5.1l-1.2,3.8"/>
	<path class="st0" d="M1691.7,2606.7v3.9c0,21.4,5.1,39.1,17.7,53c11.3,13.8,25.2,21.4,41.6,21.4c13.9,0,27.7-6.3,44.1-17.6
		c1.2-1.3,1.2-1.3,2.5-1.3s2.5,0,2.5,2.5c0,3.8-3.8,8.8-12.6,15.2c-16.4,12.6-32.8,18.9-50.4,18.9c-20.2,0-36.6-7.5-50.4-22.7
		c-12.6-15.2-20.2-34.1-20.2-55.5c0-21.5,7.6-40.4,21.4-56.8c13.9-15.2,30.2-24,49.2-24c20.2,0,36.6,8.8,47.9,26.5
		c3.8,3.8,6.3,8.8,8.8,16.4c3.8,7.5,5,12.6,5,15.2c0,3.8-3.8,6.3-11.4,6.3l-13.9-1.3H1761H1691.7z M1693,2596.7h61.8
		c10.1,0,15.1-1.2,15.1-6.3c0-8.8-5-17.7-12.6-26.4c-8.8-7.6-17.7-11.4-27.7-11.4c-10.1,0-17.7,3.8-24,11.4
		C1698,2572.7,1694.2,2584,1693,2596.7z"/>
	<path class="st0" d="M882.2,2759.4l61.8-452.9l-302.6,107.2C761.2,2493.2,848.2,2615.6,882.2,2759.4z"/>
	<path class="st0" d="M860.8,2890.7c0-196.9-105.9-368.5-263.5-461.8l-443.8,156.4l16.4,37.8c45.4-26.4,98.3-41.6,155.1-41.6
		c170.2,0,308.9,138.8,308.9,309.2c0,11.3-1.3,22.7-2.5,32.8h229.5C860.8,2913.4,860.8,2902,860.8,2890.7z"/>
	<path class="st0" d="M324.9,2613c-53,0-100.9,13.9-142.5,39.2l39.1,89.6c29-20.2,64.3-32.8,103.4-32.8c99.6,0,181.6,82,181.6,181.7
		c0,11.3-1.3,22.7-3.8,32.8h97.1c1.3-10.1,2.5-21.5,2.5-32.8C602.3,2738,477.5,2613,324.9,2613z"/>
	<path class="st0" d="M477.5,2890.7c0-84.6-68.1-152.7-152.6-152.7c-35.3,0-66.8,11.3-92,30.2l22.7,53
		c17.6-17.6,41.6-27.8,68.1-27.8c54.2,0,98.3,44.1,98.3,97.2c0,11.3-2.5,22.7-6.3,32.8h58C476.2,2913.4,477.5,2902,477.5,2890.7z"/>
	<path class="st0" d="M324.9,2816.2c-24,0-45.4,11.3-59.3,29l34,78.2h92c3.8-10.1,7.6-20.1,7.6-32.8
		C399.3,2850.3,365.3,2816.2,324.9,2816.2z"/>
</g>
</svg>
