<svg xmlns="http://www.w3.org/2000/svg" viewBox="0 0 206 244"><defs><style>.cls-1{fill:#231f20;}</style></defs><title>riddick_a-icons-placeholders</title><g id="canada_goose"><path id="canada_goose-2" data-name="canada_goose" class="cls-1" d="M36.94,9.07s-9.2.27-11.92,5-3.74,7.15-5.45,8S9.87,28.75,4.94,32,0,38.79,0,38.79a49.89,49.89,0,0,0,9.53-2c3.58-1.36,10.38-2.73,13.62-1.36s14.13,1.36,20.76,2,13.62.85,13.62,11.23S54.3,67.22,46.47,74.88s-14.3,21.61-12.09,44.76,12.77,37.62,23.15,43.24S73,172.07,83.74,173.26c0,0,4.43,5.28,2.56,8.34s-2.34,3.15-2.17,8.21-1.41,6.73-5.41,14.17-6.55,11.41-6.63,13.53-14-.85-19,.86-1.88,2.38.08,2.21-4,.76-7.15,2-6.38,1.87-4.08,3.23,14.47,2.38,17.95,3.57-.08,4.68.94,5.45,6.3-1.7,10.13-4.34,5.11-6.13,8.17-6.3,2.89.17,3.83-1.53.42-3.74,1.11-3.66,2.21,3.83,3.91,4.51,4.85,1,3.15-3.06-5.7-6.39-5.45-8.51,2.13-8.09,4.51-13.28,4.51-7.57,4.85-10.47.51-5.36-.93-6.72-2-6-.6-6.21,19.75,2.63,37.36-.17c0,0,4.34.68,3.49,3.74s-1.36,4.94.94,10.55.85,22.47-1.79,24.6-2.13,2.55-9.19,3.06-10.72.51-12.77,1.88-.17,2.8,2.47,2.55-3.32,2.38-3.23,6.72,3.15.68,5.79.34,16.34-1.53,17.1.26.34,2.81,1.11,3.32,2.47.51,5.19-3.32,5.62-6.9,4.6-10.21-2.56-4.6-2.64-11.32-.73-14.3.76-18.77,1.05-9.64-1.32-11.23-.44-3.45,2.88-4.15,13,0,28.66-7.81,24.17-11.92,27.74-12.6A32.29,32.29,0,0,1,206,152s-7.62-6.89-10.43-9.53-.93-3.23-3.31-5.79-13.07-11.53-14.09-15.87-13.79-18.64-18.89-21.45S157.49,93,147,88s-23.23-7.72-31.47-6.51-9.76,1.73-17,.64-15.12.77-18.12,1.28-1.47-1.28-.71-5.24,7.54-29.74-2.8-42.25S65.19,24.28,61.74,19.17,51.45,9.07,36.94,9.07Z"/></g></svg>