<svg xmlns="http://www.w3.org/2000/svg" viewBox="0 0 245.76 244.88"><defs><style>.cls-1{fill:#231f20;}</style></defs><title>riddick_a-icons-placeholders</title><g id="coyote"><path id="coyote-2" data-name="coyote" class="cls-1" d="M8.39,148.87s20.49-4.59,29.21-7.11,13.1-2.8,20.49-12.24,6.51-12.91,16.83-17.83,21.62-8.32,40.91-9.65,40.84-8.35,54-20.12S181.75,61.66,175.57,62s-7.85-.47-8-2,5.18-2.93,8.58-5.12S188,50,192.4,43.83s2.59-10.71,8.91-14.1,10.31-3.79,12.37-6.45,2.6-6.85,4.46-9,3.06-2.46,4.06-1.33,4.65,7.12,5.39,16.9c0,0,4.59-3.26,7.58-.33s3.33,7.51-.76,10.14-6.89,5.29-6.79,14.87-1.7,39.51-3.19,48.79-11,37.82-18.53,48.13-12.51,19.69-14.83,34.06-1.93,21.89-.4,26.28a13.49,13.49,0,0,0,7.65,8.71c4.12,2.07,2.92,4.53,1.93,5.53s-5.93,3.85-12.91,0-10.24-12.51-10-24.09,5.66-39.11,7.85-43.1c0,0-5.39-.74-8.71,9.58S172,203,173.57,210.67s8.38,12.51,8.05,16.1-.87,5-5.86,4.86-7-.4-8.64-2.46-1.6-5.26-1.47-8.58-1.93-30.8-3.39-43.11-2.86-19.82-2.86-19.82-11.31,3.52-20.69,4.32-11.71-.07-13.1.93-12,15-14.37,18.49-2.8,9-3.06,17.1,1.26,13.37,3.12,15.63,7,2.73,7.79,4.06,2.06,1.6-2,3.26-6.25,1.8-9.25,1.33-3.72-2.86-5.38-6.32S94.87,201.23,93.74,198s-2.19-5.72-.73-8.38,8.12-12,8-16.17,0-12.37,0-12.37a84.79,84.79,0,0,0-17.16,16c-7.38,9.45-8.45,12.84-8.25,16.7s1.46,7.65.93,13,.27,8.51,1.8,10.38,6.12,2.33,5.45,4.52-3.39,4-7.31,3.73-6.86-.94-8-4.93-4.33-18-4.73-22.41-1.19-10.38.87-15,5.52-6.05,6.65-7.65a27.61,27.61,0,0,0,5.46-20.49c-1.47-11.64-.67-12.37-1.47-11.64s-7.12,14.1-15.63,17-10.11.33-12.71,1.33-2.52,5.85-15.7,5l.54-4.32s-2,2.52-9.58,3a4.13,4.13,0,0,1,1.19-3.93,5.06,5.06,0,0,1-3.72.74,9.71,9.71,0,0,1,.66-3.73s-2.52,1.73-7.25.8c0,0-1.33-3.39,2.6-5.46Z"/></g></svg>