<?xml version="1.0" encoding="utf-8"?>
<!-- Generator: Adobe Illustrator 23.0.3, SVG Export Plug-In . SVG Version: 6.00 Build 0)  -->
<svg version="1.1" xmlns="http://www.w3.org/2000/svg" xmlns:xlink="http://www.w3.org/1999/xlink" x="0px" y="0px"
	 viewBox="0 0 331.2 331.2" style="enable-background:new 0 0 331.2 331.2;" xml:space="preserve">
<style type="text/css">
	.st0{display:none;}
</style>
<g id="woodpecker">
</g>
<g id="turkey" class="st0">
</g>
<g id="raven">
</g>
<g id="mosquito">
</g>
<g id="mallard_x5F_duck">
</g>
<g id="frog">
</g>
<g id="cricket">
</g>
<g id="canada_x5F_goose">
</g>
<g id="coyote">
	<path d="M196.24,196.89c0,0-2.55,33.87-2.04,42.38c0.51,8.51,0.87,20.77-0.08,24s-2.29,5.79,0,6.64s-2.6,17.53-1.26,21.79
		c1.34,4.26,1.34,4.77,8.66,4.43c7.32-0.34,9.53-5.96,8.51-13.28c-1.02-7.32,1.63-91.43,1.63-91.43L196.24,196.89z"/>
	<path d="M310.33,61.19c0,0,3.83,3.57,2.55,9.32c-1.28,5.74-6,14.94-6.64,18.26c-0.64,3.32-2.68,6.26-4.98,7.4
		c-2.3,1.15,0.51,6.51,0,8.04c-0.51,1.53-1.02,5.62-3.83,6.77c-2.81,1.15-1.15,7.28-3.57,10.34s-6.38,8.43-11.62,15.45
		c-5.23,7.02-11.36,13.53-18.26,19.91s-10.09,11.74-13.53,12.64c-3.45,0.89-4.6,6.77-8.55,10.47c-3.96,3.7-5.87,14.68-26.17,12.13
		s-45.96-4.6-54.13-4.98c-8.17-0.38-16.72,1.53-20.81,0.13c-4.09-1.4-13.15-5.74-17.62-6.77s-24.64,0.43-32.98,8.77
		s-5.11,13.96-15.15,23.66c-10.04,9.7-7.66,7.66-14.81,18.04c-7.15,10.38-12.09,17.02-13.62,29.79
		c-1.53,12.77-1.53,20.43,1.19,20.94c2.72,0.51,8.34,0.17,8.51,4.09c0.17,3.91,1.02,8.34-3.06,8.34s-14.98,1.53-16.51,0
		s-3.57-5.62-3.4-11.74c0.17-6.13-2.06-22.64-0.01-34.89c2.05-12.26,21.63-119.15,40.86-133.79s48.17-11.74,65.36-11.06
		c17.19,0.68,17.87,4.26,30.47,2.38c12.6-1.87,27.4,0.68,36.43,1.19c9.02,0.51,4.26-3.91,18.21-4.94
		c13.96-1.02,14.94-0.81,15.19-3.87c0.26-3.06-0.38-2.55-2.55-7.02c-2.17-4.47-7.4-18.89-8.04-23.36c-0.64-4.47-2.68-7.91,0-9.19
		c2.68-1.28,3.96,1.15,7.79,4.09s14.3,10.47,16.6,11.36c2.3,0.89,5.49,2.68,8.94,3.06s16.98,0,20.3,1.91c0,0,8.04-5.87,12.77-9.57
		C300.37,64.76,305.35,60.42,310.33,61.19z"/>
	<path d="M61.78,151.78c0,0,9.19,34.04,17.19,44.6s4.6,21.28,2.21,25.19s-6.13,14.13-10.72,20.43c-4.6,6.3-6.3,7.15-5.28,12.43
		c1.02,5.28,5.79,18.21,9.36,28.26c3.57,10.04,3.4,17.19,6.3,17.53s17.87,1.53,21.11,0.68c3.23-0.85,3.06-4.6,2.89-6.3
		c-0.17-1.7-1.7-6.98-5.79-6.98s-9.19,1.02-9.19,1.02s-5.79-12.94-5.79-23.32c0-10.38,2.89-19.06,6.3-24.51
		c3.4-5.45,6.28-9.7,14.54-21.62c8.26-11.91,12.35-13.96,15.24-30.98c2.89-17.02,5.11-28.09,5.11-28.09"/>
	<path d="M75.28,112.7c0,0-16.06,3.25-20.4,13.46c-4.34,10.21-13.28,25.28-16.6,42.89s-4.23,36.51-5.82,41.87
		c-1.58,5.36-11.54,24.77-11.29,34.21s1.02,11.23,3.83,17.62c0,0,9.19-10.21,16.34-15.06c7.15-4.85,18.13-26.04,22.21-35.23
		c4.09-9.19,7.66-20.17,7.15-39.06c-0.51-18.89-9.75-22.47,4.57-42.13"/>
	<path d="M192.5,162.84c0,0,7.49,13.96,4.94,19.4s-4.07,8.17-2.2,14.81c1.86,6.64,1.35,18.89,1.69,27.91
		c0.34,9.02,1.74,25.53,1.04,33.02c-0.7,7.49,0.15,10.38-1.55,12.77c-1.7,2.38,1.7,3.57,3.74,8.17c2.04,4.6,3.23,19.74,4.26,20.6
		c1.02,0.85,13.79,0.09,19.06,1.66c5.28,1.57,9.19,1.74,9.02-2.85s-5.96-7.83-11.23-8.68c-5.28-0.85-7.15-0.17-7.15-3.57
		c0-3.4-2.72-10.38-2.55-13.45c0.17-3.06,3.4-25.7,3.57-33.87c0.17-8.17,3.74-39.15,13.79-52.26"/>
	<path d="M251.9,116.89c0,0,1.62,3.23,2.72,7.32s4.43,11.74,14.04,10.21c0,0,6.47,1.96,11.23-4.51c4.77-6.47,5.96-6.89,5.96-6.89"/>
	<path d="M261.56,133.64c0,0,3.02,3.93,6.76,3.76c3.74-0.17,9.42-3.1,10.16-5.85"/>
	<path d="M268.88,133.14c0,0-2.26-0.68-3.7-2.64s-2.72-3.13-1.79-4.71c0.94-1.59,4-3.37,6.13-3.03s5.7,0.87,5.7,3.03
		C275.22,127.95,275.82,132.2,268.88,133.14z"/>
	<path d="M276.33,111.36c0,0-0.45-5.87,2.16-6.64c2.61-0.77,5.25-0.26,6.78,0.94c0,0-0.51,3.23-3.83,3.23s-4.04-2.93-4.04-2.93"/>
	<path d="M262.39,111.23c0,0,1.21-6.67-2.78-7.34c-3.99-0.67-5.17,0.89-5.17,0.89s0.1,3.35,3.73,3.45c3.64,0.1,3.61-2.2,3.61-2.2"/>
</g>
<g id="birds">
</g>
<g id="owl">
</g>
<g id="fox">
</g>
</svg>
