<?xml version="1.0" encoding="utf-8"?>
<!-- Generator: Adobe Illustrator 23.0.3, SVG Export Plug-In . SVG Version: 6.00 Build 0)  -->
<svg version="1.1" xmlns="http://www.w3.org/2000/svg" xmlns:xlink="http://www.w3.org/1999/xlink" x="0px" y="0px"
	 viewBox="0 0 331.2 331.2" style="enable-background:new 0 0 331.2 331.2;" xml:space="preserve">
<style type="text/css">
	.st0{display:none;}
</style>
<g id="woodpecker">
</g>
<g id="turkey" class="st0">
</g>
<g id="raven">
</g>
<g id="mosquito">
</g>
<g id="mallard_x5F_duck">
</g>
<g id="frog">
</g>
<g id="cricket">
</g>
<g id="canada_x5F_goose">
</g>
<g id="coyote">
</g>
<g id="birds">
</g>
<g id="owl">
</g>
<g id="fox">
	<path d="M192.59,196.07c0,0-0.47,4.65,0.93,9.5c1.4,4.85,2.17,7.91,9.7,13.15c7.53,5.23,11.36,6.51,11.74,11.36
		c0.38,4.85-0.13,9.57-1.66,12c-1.53,2.43-0.89,6.64-2.17,10.6c-1.28,3.96-4.34,11.36-6.77,13.79c-2.43,2.43,0.26,2.17-4.47,2.55
		s-17.46,1.03-19.15,0c-1.68-1.03,2.43-7.79,6.51-8.3c4.09-0.51,5.62,2.55,7.79-1.15c2.17-3.7,5.74-13.91,5.49-17.62
		c-0.26-3.7-0.77-6-7.79-11.62c-7.02-5.62-27.19-20.43-17.74-29.49S192.59,196.07,192.59,196.07z"/>
	<path d="M46.21,173.49c0,0,5.36,17.52,10.34,20.2c4.98,2.68,11.74,5.11,13.4,8.43s3.96,24.38,4.21,29.62
		c0.26,5.23,0.77,6.51,0.64,11.11c-0.13,4.6,1.66,12-1.53,13.15c-3.19,1.15-10.34,0.13-10.72,4.34c-0.38,4.21-0.13,4.72,5.74,4.72
		s14.3-0.89,15.19-2.17c0.89-1.28,1.53-12.77,3.83-16.85c2.3-4.09,0.38-9.19,0.89-16.34c0.51-7.15,2.15-26.92,3.82-30.06
		c1.67-3.13,1.8-13.35,1.8-13.35L46.21,173.49z"/>
	<path d="M181.01,128.72c0,0,7.28,2.17,19.53,6.64c12.26,4.47,9.45,7.53,17.62,12.38s16.98,12.38,27.83,22.47
		c10.85,10.09,15.96,16.98,33.7,24.64c17.74,7.66,34.09,20.04,39.57,26.94c5.49,6.89,3.06,9.7,2.43,15.32
		c-0.64,5.62-5.87,18.64-12.51,17.23s-19.02-3.45-28.6-9.7c-9.57-6.26-22.21-8.43-31.79-13.4c-9.57-4.98-30.26-18.89-37.91-26.94
		s-15.06-21.32-26.3-24c-11.23-2.68-32.94,14.43-54.38,14.43s-43.15,4.32-58.6-3.14s-32.94-19.97-35.23-38.61
		c-2.3-18.64,1.02-24.89,4.98-28.09c3.96-3.19,36.51,0.77,54,0C112.84,124.12,156.37,118.5,181.01,128.72z"/>
	<path d="M80.29,177.87c0,0,7.4,12.77,12.64,23.62c5.23,10.85,8.3,31.79,9.7,36.89c1.4,5.11,3.19,15.57,1.53,20.04
		c-1.66,4.47-3.45,3.06-7.28,7.28c-3.83,4.21-0.64,6.64-0.13,7.02c0.51,0.38,15.45,1.15,18.77-1.91c3.32-3.06,0.64-7.4,0.64-11.74
		c0-4.34,2.17-5.87,2.55-8.04c0.38-2.17-1.91-2.81-2.17-8.68s0-3.96,0-13.28s-5.62-30.89-3.45-35.87c2.17-4.98,2.17-9.19-1.91-19.02
		"/>
	<path d="M156.75,167.78c0,0-20.43,9.06-4.85,28.6s22.09,26.3,24.26,32.04c2.17,5.74,3.32,14.43,0,19.28
		c-3.32,4.85-6.38,12.38-8.17,13.4s-5.23,0.38-9.32,2.43c-4.09,2.04-5.36,3.19-4.6,6.26s19.79,2.43,22.21,1.15
		c2.43-1.28,10.85-14.68,14.3-20.81s5.23-10.98,4.6-15.32c-0.64-4.34-1.53-7.28-4.85-12.13s-6.64-12.38-3.19-19.53
		c3.45-7.15,18.89-15.32,20.68-46.6"/>
	<path d="M88.17,131.16c0,0,5.27-3.59,5.65-9.21s-1.15-11.62-1.02-14.04c0.13-2.43,4.34-17.36,4.09-22.85
		c-0.26-5.49-0.26-9.57-3.06-10.34c-2.81-0.77-7.15,2.04-10.98,7.4s-7.66,4.34-12.13,6.51c-4.47,2.17-5.62,3.57-7.02,2.68
		s-9.18-17.49-17.48-14.55c0,0-3.07,2.04-5.24,12.26c-2.17,10.21-3.06,15.7-2.68,21.7c0.38,6-2.17,8.81-3.19,13.4
		c-1.02,4.6,0.8,24.26,0.8,24.26"/>
	<path d="M60.37,139.06c0,0,6,0.77,12.13,2.3c6.13,1.53,10.21,1.15,12.26-1.15c2.04-2.3,1.53-7.4,1.53-7.4"/>
	<path d="M78.88,114.42c0,0,7.02,12,8.43,14.81c1.4,2.81,2.55,6.28,1.02,8.31c-1.53,2.03-1.4,3.18-6.38,1.9c0,0-5.69,1.58-8.59,0.54
		s-9.67-4.24-9.67-4.24"/>
</g>
</svg>
