<?xml version="1.0" encoding="utf-8"?>
<!-- Generator: Adobe Illustrator 23.0.3, SVG Export Plug-In . SVG Version: 6.00 Build 0)  -->
<svg version="1.1" xmlns="http://www.w3.org/2000/svg" xmlns:xlink="http://www.w3.org/1999/xlink" x="0px" y="0px"
	 viewBox="0 0 331.2 331.2" style="enable-background:new 0 0 331.2 331.2;" xml:space="preserve">
<style type="text/css">
	.st0{display:none;}
</style>
<g id="woodpecker">
</g>
<g id="turkey" class="st0">
</g>
<g id="raven">
</g>
<g id="mosquito">
	<path d="M172.92,122.9l21.63-58.78l31.92,47.18c0,0,35.27-11.86,43.51-11.86c8.24,0,16.48,11.33,16.48,11.33l-16.99-6.06
		l-44.54,13.71l-28.58-47.71l-21.63,58.52L172.92,122.9z"/>
	<path d="M178.2,134.08l15.32-24l40.34,61.02c0,0,63.83,32.94,62.3,36.77l-66-36l-36.13-55.66l-14.04,22.98L178.2,134.08z"/>
	<polygon points="168.58,119.61 158.93,58.25 154.49,58.25 152.92,94.42 157.36,67.36 165.88,117.47 	"/>
	<path d="M197.07,185.31c0,0,22.64,24,26.55,29.62c3.91,5.62,4.26,5.96,5.62,5.79c1.36-0.17,0-2.72-6.64-10.55
		c-6.64-7.83-24.17-26.89-24.17-26.89L197.07,185.31z"/>
	<path d="M182.12,158.97c0,0-2.04-6.85-1.36-8.72c0.68-1.87,3.76-2.43-1.61-13.47c-5.37-11.04,0.25-13.76-24.26-28.74
		S106.2,84.38,106.2,84.38s-13.31,18.59-11.31,25.7c7.77,27.57,46.37,28.43,48.58,30.13c2.21,1.7,14.13,16,28.85,15.66l6.55,6.64
		L182.12,158.97z"/>
	<path d="M159.65,147.55l-73.78,16.63l12.08,61.79c0,0-21.01,60.1-52.25,78.16c0,0,25.73-19.35,48.05-78.28l-9.98-66.16l74.31-14.7"
		/>
	<path d="M165.6,151.95l-26.72,7.02l34.98,54.77l27.06,68.43c0,0,6.64,9.7-9.19-31.4s-14.04-36.51-17.87-42.89
		s-29.11-46.72-29.11-46.72l23.49-6.64"/>
	<path d="M181.6,156.21c0,0,8.34-4.6,10.38,0c2.04,4.6-2.72,12.94-2.72,12.94s6.13,6.47,11.23,13.28c1.81,1.87-1.02,2.89-1.02,2.89
		s-0.17,2.89-3.4,0c-3.23-2.89-13.11-14.13-13.11-14.13s-3.06,2.72-9.11-1.53C167.82,165.4,181.6,156.21,181.6,156.21z"/>
	<path d="M170.8,120.04c0,0-5.87-10.72-21.45-26.04s-28.09-29.36-42.38-27.57c-14.3,1.79-13.79,12-9.19,22.72
		c4.6,10.72,45.45,26.81,54.13,28.34"/>
	<path d="M150.63,137.65c0,0-68.68-19.91-88.09-26.3c-19.4-6.38-15.32-22.72-10.21-24.77c5.11-2.04,50.81-9.7,72.26,6.38
		s26.04,29.87,26.04,29.87"/>
</g>
<g id="mallard_x5F_duck">
</g>
<g id="frog">
</g>
<g id="cricket">
</g>
<g id="canada_x5F_goose">
</g>
<g id="coyote">
</g>
<g id="birds">
</g>
<g id="owl">
</g>
<g id="fox">
</g>
</svg>
