<?xml version="1.0" encoding="utf-8"?>
<!-- Generator: Adobe Illustrator 23.0.3, SVG Export Plug-In . SVG Version: 6.00 Build 0)  -->
<svg version="1.1" xmlns="http://www.w3.org/2000/svg" xmlns:xlink="http://www.w3.org/1999/xlink" x="0px" y="0px"
	 viewBox="0 0 331.2 331.2" style="enable-background:new 0 0 331.2 331.2;" xml:space="preserve">
<style type="text/css">
	.st0{display:none;}
</style>
<g id="woodpecker">
</g>
<g id="turkey" class="st0">
</g>
<g id="raven">
</g>
<g id="mosquito">
</g>
<g id="mallard_x5F_duck">
</g>
<g id="frog">
</g>
<g id="cricket">
</g>
<g id="canada_x5F_goose">
</g>
<g id="coyote">
</g>
<g id="birds">
	<path d="M276.58,52.21c0,0,15.32-1.02,24.51,9.19c9.19,10.21,10.21,17.36,10.21,23.83s0,25.53-3.4,32.34
		c-3.4,6.81-0.68,18.72,1.36,27.57c2.04,8.85,6.81,16.68-3.06,33.7s-16,35.06-36.77,40.51s-48,16-59.57,18.04
		c-11.57,2.04-32.68,6.81-42.89,0s-7.49-16.34-11.23-20.43c-3.74-4.09-12.6-9.53-27.91-11.23s-37.11-1.36-51.74-2.72
		c-14.64-1.36-30.3-4.09-30.3-4.09s107.57-55.83,115.06-66.38s8.51-17.02,20.43-23.83c11.91-6.81,38.81-21.11,43.57-23.83
		C229.6,82.16,250.03,54.93,276.58,52.21z"/>
	<path d="M252.75,108.38c0,0,27.23-2.04,33.36,13.28c6.13,15.32,5.79,25.19,0,30.98c-5.79,5.79-23.49,16.68-31.66,18.38
		s-19.4,0-19.4,0s1.02-9.87,11.91-16.68"/>
	<path d="M235.94,167.56c0,0-8.38,3.45-34.93,8.56s-90.55,14.64-123.57,22.47S14.8,214.93,14.8,214.93s-8.51,1.36-11.23,0
		c-2.72-1.36,6.47-4.09,9.53-5.11l-10.03,1.7c0,0,24.33-10.89,37.6-14.98c13.28-4.09,61.62-25.47,65.02-30.95
		c3.4-5.48,5.11-12.97,7.49-14.67c2.38-1.7,19.06-9.55,20.77-10.9s-2.98-0.59-2.98-0.59s22.93-7.61,36.44-17.21"/>
	<ellipse cx="278.29" cy="81.23" rx="5.36" ry="4.09"/>
	<path d="M304.58,83.01c0,0,16.6,7.66,18.38,20.17c0,0-17.36,0.77-18.38,1.79c-1.02,1.02-6.64,3.31-6.64,3.31"/>
	<path d="M297.95,95.65c0,0,14.81,4.47,19.91,6"/>
	<path d="M168.75,225.99c0,0,1.4,4.47,2.3,10.09s1.15,24,0.64,27.19c-0.51,3.19-0.51,9.83-1.34,12.51s-0.96,6.38,2.49,7.02
		s5.49,2.43,5.74,0c0.26-2.43-1.53-0.51-1.53-3.7s-1.66-5.23-0.13-6.38c1.53-1.15,2.04-6.26,3.32-8.04s6.51-3.7,8.55-4.6
		c0,0-1.53-0.64-6.38-1.79c-4.85-1.15-6.89-3.83-6.51-9.57c0.38-5.74-1.15-16.6,0.51-19.79"/>
	<path d="M243.68,227.19c0,0,9.25,1.36,10.44,3.23c1.19,1.87,1.87,7.32,0,9.02c-1.87,1.7-2.89,4.77,0.34,8
		c3.23,3.23,4.77,5.62,7.32,3.91c0,0-3.06-0.68-2.72-4.09c0.34-3.4,0.68-10.04,4.09-11.74c3.4-1.7,9.36-2.21,9.36-2.21
		s-4.43-3.57-7.66-4.94c-3.23-1.36-4.71-4.25-8.65-5.19"/>
</g>
<g id="owl">
</g>
<g id="fox">
</g>
</svg>
