<?xml version="1.0" encoding="utf-8"?>
<!-- Generator: Adobe Illustrator 23.0.3, SVG Export Plug-In . SVG Version: 6.00 Build 0)  -->
<svg version="1.1" xmlns="http://www.w3.org/2000/svg" xmlns:xlink="http://www.w3.org/1999/xlink" x="0px" y="0px"
	 viewBox="0 0 331.2 331.2" style="enable-background:new 0 0 331.2 331.2;" xml:space="preserve">
<style type="text/css">
	.st0{display:none;}
</style>
<g id="woodpecker">
</g>
<g id="turkey" class="st0">
</g>
<g id="raven">
</g>
<g id="mosquito">
</g>
<g id="mallard_x5F_duck">
</g>
<g id="frog">
</g>
<g id="cricket">
	<path d="M178.46,139.97c0,0,10.72,1.52,30.13-1.55s25.28-2.55,31.4-5.11c6.13-2.55,15.06-1.45,20.43,3.49s10.07,19.29,10.72,23.06
		c0.66,3.78,2.3,16.09,6.38,22.72c4.09,6.64,3.57,17.36,6.13,17.62c2.55,0.26,22.21,9.7,26.3,11.49s15.06,3.06,16.6,6.89
		c0,0-9.19-1.53-14.04-1.02s-9.92-1-18.64-4.85c-8.72-3.85-14.04-3.57-19.15-11.49c-5.11-7.91-11.16-31.4-12.98-39.83
		c-1.82-8.43-2.34-20.43-5.91-19.15c-3.57,1.28-16.6,15.57-24.51,17.36c-7.91,1.79-85.28-17.62-85.28-17.62L178.46,139.97z"/>
	<path d="M245.55,166.09c0,0,14.61,0.16,28.4-3.41s40.34-9.7,40.34-9.7s-28.09,9.43-37.53,12.63c-9.45,3.2-23.43,6.61-23.43,6.61"/>
	<path d="M111.76,126.93c0,0-2.67-6.8-8.96-6.97c-6.3-0.17-9.7,2.72-16.85,4.6c-7.15,1.87-16.51,5.61-24.34,2.38
		c-7.83-3.23-13.96-7.67-16.17-6.98c-2.21,0.69-1.7,3.07,5.28,5.28c6.98,2.21,4.45,5,14.64,6.09s24.68,0,24.68,0"/>
	<path d="M150.97,133.4c0,0,1.53-14.98,5.62-17.87c4.09-2.89,9.87,2.04,13.79,4.09c3.91,2.04,4.94,4.43,9.7,1.02
		c4.77-3.4,12.77-14.47,15.83-13.79s2.38,2.38,0,3.23c-2.38,0.85-6.3,5.11-6.81,6.81c-0.51,1.7-6.47,5.45-9.87,8.51
		s-5.28,4.42-8.51,1.27c-3.23-3.14-6.81-7.74-8.34-5.87c-1.53,1.87-1.87,16-1.87,16"/>
	<path d="M141.43,187.7c0,0,22.98,21.96,57.19,21.96s31.15-0.51,44.68-5.62c13.53-5.11,17.87-21.7,18.38-24.26
		c0.51-2.55-4.34-6.13-8.17-8.94c-3.83-2.81-5.62-6.13-20.17-12s-92.94-21.45-104.94-22.98c-12-1.53-20.17-2.3-22.21-5.62
		c-2.04-3.32-4.85-8.43-13.79-5.87s-13.02,6.89-18.38,15.83c-5.36,8.94-7.15,19.89,0,25.39s13.02,11.12,24,8.05
		C109.01,170.59,141.43,187.7,141.43,187.7z"/>
	<path d="M141.62,131.33c0,0,23.3,0.71,35.3,5.56c12,4.85,31.66,11.73,31.66,11.73s-32.3-6.99-45.26-6.3
		c-12.96,0.7-12.83,5.04-21.7,3.25s-20.95-2.81-20.95-2.81S133.94,130.88,141.62,131.33z"/>
	<path d="M132.5,147.1c0,0,16.34,8.17,26.81,11.23c10.47,3.06,20.68,11.23,30.64,14.04c9.96,2.81-12.44,14.3-24.35,12.51
		c-11.91-1.79-28.78-11.49-31.82-15.83c-3.04-4.34-10.21-12.51-10.21-12.51L132.5,147.1z"/>
	<path d="M75.05,145.48c0,0-6.81-7.56-19.4-14.16c-12.6-6.6-33.7-13.41-42.21-23.62S6.63,92.04,6.63,92.04"/>
	<line x1="13.09" y1="73.99" x2="77.78" y2="134.5"/>
	<path d="M132.92,176.8c0,0-5.45,3.95-4.77,8.27c0,0-5.79,1.94-4.6,12.83s11.4,62.3,14.81,65.36c3.4,3.06,2.72-1.7-1.7-19.4
		s-7.15-44.94-7.15-44.94s10.21,0.34,12.94-5.45c2.72-5.79,5.79-8.41,5.79-8.41"/>
	<path d="M155.05,196.12c0,0,6.13,8.78,21.45,24.35s24.51,25.78,24.51,25.78s-4.77,6.81,5.11,6.81s19.06-7.49,19.06-7.49
		s0-7.15-7.83-3.4c-7.83,3.74-5.96,8.17-8.77-1.7c-2.81-9.87-33.79-43.57-40.6-46.98"/>
	<path d="M99.05,152.21c0,0,3.57-22.47,10.21-24.77c6.64-2.3,33.19,1.28,33.19,1.28s-6.89,21.7-8.94,27.83
		c-2.04,6.13-1.02,11.74-13.79,12.77C106.97,170.33,97.52,175.7,99.05,152.21z"/>
	<path d="M111.48,172.21c0,0-13.96-9.21-15.66-5.55c-1.7,3.66-12.6,12.52-16.68,15.92c-4.09,3.4-3.4,7.83-12.26,8.17
		c-8.85,0.34-21.45,0-21.45,0s8.17,5.62,15.32,5.36s15.66-4.48,24.51-11.05c8.85-6.57,10.91-10.66,13.62-9.29
		c2.72,1.36,6.12,11.1,14.97,9.29c8.85-1.8,9.7-9.97,9.7-9.97"/>
	<path d="M242.8,182.59c0,0,10.47,0.77,13.53,4.6c3.06,3.83,14.3,16.34,31.91,22.47c0,0-11.93-2.55-26.52-9.96
		c-14.59-7.4-17.65-3.06-20.72-5.87"/>
	<path d="M78.97,147.01c0,0,6.81-4.94,8.68-0.68c1.87,4.26,4.77,7.15,1.19,10.55c-3.57,3.4-4.43,4.77-7.15,4.09
		C78.97,160.29,73.69,157.74,78.97,147.01z"/>
</g>
<g id="canada_x5F_goose">
</g>
<g id="coyote">
</g>
<g id="birds">
</g>
<g id="owl">
</g>
<g id="fox">
</g>
</svg>
