<svg id="fox" xmlns="http://www.w3.org/2000/svg" viewBox="0 0 247 204"><defs><style>.cls-1{fill:#231f20;}</style></defs><title>riddick_a-icons-placeholders</title><path id="fox-2" data-name="fox" class="cls-1" d="M88.62,60.2A41.42,41.42,0,0,1,71,55.08,47,47,0,0,1,63,49.43c-8.68-7.66-9.83-7.66-10.85-9.32s-4.6-6.39-5.24-7.54-2.55-.76-2.68,0-.51,2.56-1.79,1-3.19-1.66-3.19.76,1.41,9.32,0,10.47S31.68,48.4,28.62,54.4,25,60.79,20.7,63.21s-6.51,3.45-4.34,5.49,3.83,3.58,8.17,4,15.19-1.28,17.49.77S54.28,87.72,60,91.3s13.66,8,16.47,23.87,2.55,29.36-.13,30.26-6.51,2.17-6,6.25H94.11s2.42-2,2.55-7.53S94.23,125.89,94,122.06s.13-13.66,1.15-14.93,13.15,1.15,26.68-3.32,12.64-3.19,13.28,1.53A28.5,28.5,0,0,0,142,120.53c4.21,4.6,6.51,6.26,7.4,10.6a19.19,19.19,0,0,1-1.78,12.64c-2,4.34-2.69,3.57-5.62,3.7s-3.7,4.21-3.7,4.21H159.6s4.08-9.83,7.4-17.62,2.81-8.42.89-11.74-6-7.66-5.74-13.79,3.67-8.17,7.26-5.23,19.42,18,34.87,25.27,20.81,7.92,24.12,7.28,4.22-6.25.77-11.74-10.72-11.49-15.57-16.47-10.86-15.19-15.07-19.15-11.1-12-27.32-16c0,0-10.21-11.49-34.59-11C119.13,61.92,98.75,60.84,88.62,60.2Z"/></svg>