<?xml version="1.0" encoding="utf-8"?>
<!-- Generator: Adobe Illustrator 23.0.3, SVG Export Plug-In . SVG Version: 6.00 Build 0)  -->
<svg version="1.1" xmlns="http://www.w3.org/2000/svg" xmlns:xlink="http://www.w3.org/1999/xlink" x="0px" y="0px"
	 viewBox="0 0 331.2 331.2" style="enable-background:new 0 0 331.2 331.2;" xml:space="preserve">
<style type="text/css">
	.st0{display:none;}
</style>
<g id="woodpecker">
</g>
<g id="turkey" class="st0">
</g>
<g id="raven">
</g>
<g id="mosquito">
</g>
<g id="mallard_x5F_duck">
	<path d="M233.42,137.61c0,0-10.03-9.92-57.77,16.13s-67.91,45.96-77.36,52.09c-9.45,6.13-41.11,30.64-41.11,30.64
		s15.32-8.68,19.66-8.68s-12.26,8.77-15.32,12.55c-3.06,3.79,0.11,1.94,14.35-0.97c14.24-2.91,67.09-12.61,67.09-12.61
		S260.81,150.85,233.42,137.61z"/>
	<path d="M203.56,252.72c0,0,3.91,21.28,7.66,22.81c3.74,1.53,15.32,0.34,21.45,1.7s12.94,6.3,12.94,6.3s-5.11,2.21-0.85,3.74
		c4.26,1.53,7.49,4.6,7.49,4.6s-20.26-0.51-17.7,0c2.55,0.51-13.11-1.36-18.72-2.04s-6.81-1.36-8.51-8.85
		C205.6,273.48,203.56,252.72,203.56,252.72z"/>
	<path d="M194.2,255.95c0,0,2.72,9.36,3.74,11.91s1.36,13.45,0,17.7c-1.36,4.26,2.72,8.68,2.55,10.72
		c-0.17,2.04,5.79,2.21,8.85,4.77s26.21,9.53,35.4,6.98c0,0-11.74-3.06-4.26-6.98c0,0,6.47-4.09-3.06-7.15
		c-9.53-3.06-24-6.3-21.96-6.81c2.04-0.51-0.51-3.06-1.87-2.04c-1.36,1.02-2.72,2.04-2.72,2.04s-1.36-13.79-2.38-15.66
		s2.89-15.32,2.72-19.74"/>
	<path d="M256.67,79.1c0,0-0.85,13.62,9.62,28.17s36.51,40.6,36.51,62.55s-8.43,29.62-25.28,46.21s-17.87,24-38.55,31.66
		s-36.89,11.11-45.45,11.23s-18.13,0.64-25.91,0c-7.79-0.64-11.62-2.17-14.04-0.89c-2.43,1.28-3.57,2.68-12.51,2.55
		s-15.45,1.28-25.02-1.91s-32.17-9.7-32.17-9.7s81.74-82.21,96.89-92.6c15.15-10.38,27.74-11.4,38.64-13.96s15.32,0.51,13.79-8.68
		c-1.53-9.19,0.68-16.51,0.85-21.79c0.17-5.28-4.26-14.81-8.17-28.09c-3.91-13.28-5.45-22.64-2.21-29.28
		c3.23-6.64,1.7-12.26,12.09-19.4s23.15-3.23,32,2.38s8.17,14.81,11.06,17.87s1.02,14.13-6.47,17.53
		C264.84,76.38,256.67,79.1,256.67,79.1z"/>
	<path d="M136.84,230.59c0,0-9.7,12.51-24.51,19.91s-26.04,9.59-34.72,10.29s-27.06-7.22-27.06-7.22l50.55-28.34L136.84,230.59z"/>
	<path d="M276.89,51.54c0,0,4.55,3.14,8.89,6.2c4.34,3.06,6.55,6.3,9.96,7.57s14.04,6.81,16.94,7.66c2.89,0.85,5.28,2.3,4.85,4.34
		c-0.43,2.04-0.77,1.96-4.6,1.87c-3.83-0.09-9.19,0.49-12.26,0.03c-3.06-0.46-8.77-3.95-11.91-4.03
		c-3.15-0.09-15.23-2.04-18.47-2.81c-3.23-0.77-3.06-5.11,1.28-6.3c4.34-1.19,4.77-0.51,5.45-2.81
		C277.69,60.97,279.23,56.57,276.89,51.54z"/>
	<path d="M271.65,68.29c0,0,10.89,5.36,15.74,6.04c4.85,0.68,13.02,4.1,17.28,4.51"/>
	<path d="M285.35,61.99c0,0,3.66-0.6,4.17,0.94c0.51,1.53-0.26,2.38-2.09,1.7C285.6,63.95,284.84,63.27,285.35,61.99z"/>
	<ellipse cx="257.6" cy="47.01" rx="3.66" ry="2.98"/>
	<path d="M240.5,172.63c0,0-44.94,31.4-63.57,44.17s-20.94,21.7-46.47,23.23c-25.53,1.53-55.91-3.32-55.91-3.32
		s35.23-26.3,49.79-36.77c14.55-10.47,54.38-63.63,97.28-53.9"/>
</g>
<g id="frog">
</g>
<g id="cricket">
</g>
<g id="canada_x5F_goose">
</g>
<g id="coyote">
</g>
<g id="birds">
</g>
<g id="owl">
</g>
<g id="fox">
</g>
</svg>
