<?xml version="1.0" encoding="utf-8"?>
<!-- Generator: Adobe Illustrator 23.0.3, SVG Export Plug-In . SVG Version: 6.00 Build 0)  -->
<svg version="1.1" xmlns="http://www.w3.org/2000/svg" xmlns:xlink="http://www.w3.org/1999/xlink" x="0px" y="0px"
	 viewBox="0 0 331.2 331.2" style="enable-background:new 0 0 331.2 331.2;" xml:space="preserve">
<style type="text/css">
	.st0{display:none;}
</style>
<g id="woodpecker">
	<path d="M167.73,58.25c0,0-4.85,9.45-9.19,14.04c-4.34,4.6-9.19,16.09-9.19,16.09s6.13,6.13,10.98,6.64
		c4.85,0.51,8.94,5.87,11.74,7.4c2.81,1.53,16.34,12.51,25.28,22.98s15.57,18.89,18.38,37.28c2.81,18.38,2.3,34.21-5.36,44.17
		c-7.66,9.96-7.15,41.11-7.15,41.11l-3.06,28.34c0,0-58.72-70.21-64.09-78.13c-5.36-7.91-10.47-19.94-10.47-32.56
		c0-12.63-5.36-27.44,0-34.84c5.36-7.4,7.49-6.89-2.38-14.3c-9.87-7.4-25.7-10.47-24.94-20.68c0.77-10.21,6.64-36.51,18.38-39.32
		c11.74-2.81,18.64,0.77,32.68,1.79C163.39,59.27,167.73,58.25,167.73,58.25z"/>
	<path d="M145.78,60.55c0,0,14.3-7.15,22.47-10.47s20.68-6.64,20.68-6.64s-2.55,6.38-7.66,9.7S149.6,71.27,149.6,71.27
		s1.79-4.6-2.3-4c-4.09,0.6-10.21,4-10.21,4L145.78,60.55z"/>
	<path d="M119.32,58.33c-1.58-0.64-3.32-0.78-4.98-0.39c-2.94,0.68-7.59,1.83-9.67,2.79c-3.15,1.45-5.45,3.57-5.45,3.57l3.66-0.68
		l-14.81,6.47l3.06,2.55c0,0-2.89,4.09-5.79,7.23l2.47,0.77l-6.21,7.66c0,0,6.38-1.36,8.51,0.77c2.13,2.13,5.36,4.09,6.21,5.02
		c0.85,0.94,1.97,3.16,1.97,3.16s3.14-12.52,7.05-20.77s5.87-7.91,5.87-7.91s-5.02-1.96-2.38-3.4c2.64-1.45,12.6-5.96,12.6-5.96
		L119.32,58.33z"/>
	<circle cx="125" cy="69.73" r="3.56"/>
	<path d="M203.22,247.95c0,0,13.09,29.62,14.08,50.04s-7.04,33.21-7.04,33.21s-0.91-13.29-7.04-27.33
		c-6.13-14.04-5.36-20.17-10.47-27.57c-5.11-7.4-13.28-20.43-13.28-28.34"/>
	<path d="M231.37,106.25c0,0,3.34-4.85,8.36-2.47c5.02,2.38,7.15,5.7,5.79,8c0,0-2.55-5.28-6.3-5.11s-5.62,2.72-5.62,2.72
		L231.37,106.25z"/>
	<path d="M220.92,118.08c0,0-0.6-3.66,2.38-4.85c2.98-1.19,5.41,0,5.41,0l-0.62,2.52c0,0-2.75-1.15-3.51,1.83
		C223.82,120.55,220.92,118.08,220.92,118.08z"/>
	<path d="M241.34,122.48c0,0,7.58-5,10.9-1.85c0,0-5.02,1.36-8.34,3.15C240.58,125.57,238.1,126.81,241.34,122.48z"/>
	<path d="M189.31,158.97c0,0,2.94,17.49,15.96,10.72c13.02-6.77,10.72-15.83,17.87-24.51c7.15-8.68,18.89-17.66,19.74-19.62
		c0.85-1.96-0.85-3.4-2.3-3.06c-1.45,0.34-3.83,3.57-6.72,5.45s-5.19,3.23-5.19,3.23s3.32-9.11,3.66-12.34s2.3-8.68,2.55-9.36
		c0.26-0.68-3.32-3.91-4.34-3.23c-1.02,0.68-0.94,1.36-1.28,4.17s-2.81,11.32-2.81,11.32s-1.45-3.83-1.87-4.17
		c-0.43-0.34-3.32-1.45-4.17-0.43c-0.85,1.02-1.19,4.17,0.51,5.87c1.7,1.7,3.66,0.85,2.89,5.87c-0.77,5.02,0.09,5.45-3.91,12.09
		c-4,6.64-3.15,9.87-8.26,8.6c-5.11-1.28-7.4-1.87-11.49-5.87c-4.09-4-10.3-11.15-10.3-11.15"/>
	<path d="M141.6,109.74c0,0,10.3-12.26,21.4-5.96c11.11,6.3,25.06,17.87,24.21,31.32s-2.21,13.79-2.38,24.34s5.45,36.94,4.94,50.38
		s-0.17,72.17,2.55,86.3s4.26,17.87,0.68,16.34s-15.15-20.94-18.72-41.7c0,0,1.87,4.77-1.53,2.89c-3.4-1.87-16.17-24.85-22.13-34.21
		c-5.96-9.36-11.06-26.38-12.26-35.57c-1.19-9.19-2.04-33.87-2.04-33.87s-0.57,4.04-1.4,2.13c-0.83-1.91-2.34-31.74-2.34-33.28"/>
</g>
<g id="turkey" class="st0">
</g>
<g id="raven">
</g>
<g id="mosquito">
</g>
<g id="mallard_x5F_duck">
</g>
<g id="frog">
</g>
<g id="cricket">
</g>
<g id="canada_x5F_goose">
</g>
<g id="coyote">
</g>
<g id="birds">
</g>
<g id="owl">
</g>
<g id="fox">
</g>
</svg>
