<?xml version="1.0" encoding="utf-8"?>
<!-- Generator: Adobe Illustrator 23.0.3, SVG Export Plug-In . SVG Version: 6.00 Build 0)  -->
<svg version="1.1" xmlns="http://www.w3.org/2000/svg" xmlns:xlink="http://www.w3.org/1999/xlink" x="0px" y="0px"
	 viewBox="0 0 331.2 331.2" style="enable-background:new 0 0 331.2 331.2;" xml:space="preserve">
<style type="text/css">
	.st0{display:none;}
</style>
<g id="woodpecker">
</g>
<g id="turkey" class="st0">
</g>
<g id="raven">
	<path d="M147.31,263.27c0,0-8.95,16.07-16.09,25.01c-7.14,8.94-13.27,15.33-13.27,15.33l20.17,2.3c0,0-3.32-4.09,1.28-12
		s21.51-27.83,21.51-27.83L147.31,263.27z"/>
	<path d="M131.21,246.5c0,0,13.62,9.96,14.31,16.77c0.68,6.81,2.38,6.81,8.51,7.15c6.13,0.34,5.89-2.39,8.85-9.19
		c2.96-6.8,9.19-16.34,9.19-16.34S131.89,229.74,131.21,246.5z"/>
	<path d="M136.75,113.63c0,0,3.46-14.62,6.54-27.69s6.92-16.54,16.54-21.54c9.62-5,24.62-12.31,24.62-12.31s-11.15-24.23-27.69-30
		s-28.08-11.15-38.08-7.69s-28.01,20-34.97,26.15s-15.42,24.62-20.42,35s-18.85,30.77-25.77,40.38s-8.85,29.23,0,45.77
		s32.31,51.15,42.69,63.85c10.38,12.69,10.99,17.69,27.8,19.62c16.81,1.92,36.43,0.77,52.97,3.46s20.77-1.92,33.46,10.38
		c12.69,12.31,17.31,11.15,17.31,11.15s24.62,38.7,40.77,46.15s7.69-3.85,13.08-2.31c5.38,1.54,9.23,4.75,17.69,4.88
		c8.46,0.12,22.31-4.89,25.38,0c3.08,4.89,13.46,7.05,11.15-2.18c-2.31-9.23-17.69-20.38-25.77-31.15
		c-8.08-10.77-58.08-72.69-81.15-103.85s-44.23-55.38-44.23-55.38"/>
	<path d="M143.92,83.42c0,0,23.6,15.98,38.21,29.44s26.15,26.15,35,42.69c8.85,16.54,35.38,40,36.54,48.85
		c1.15,8.85-0.38,8.46-5.38,6.54c-5-1.92,30.86,43.44,40.77,61.92c9.91,18.48,11.54,26.54,11.54,26.54s-65.77-69.62-70.77-76.15
		c0,0-0.77,14.23-4.23,13.08c-3.46-1.15-40.38-35.38-40.38-35.38s2.31,7.69-0.38,8.46s-28.08-10.47-43.85-41.2s-20.77-36.49-15-48.8
		"/>
	<path d="M149.26,52.38c0,0,2.38-0.38,8.38,0.13c6,0.51,30.38,2.43,39.06,2.09c8.68-0.34,12.81,0,12.81,0
		c0.68-10.21-6.47-16.68-22.13-23.15s-38.13-7.49-38.13-7.49s0.09,8.51-4.51,13.87c-4.6,5.36-6.13,6.64-6.13,6.64L149.26,52.38z"/>
	<path d="M146.71,42.67c0,0,43.57-5.45,56.17,6.98"/>
	<path d="M139.48,28.55c0,0-4-3.15-11.4-0.51c-7.4,2.64-1.79,8.34,2.21,9.36c4,1.02,8.85-0.09,9.53-2.72
		C140.5,32.04,139.48,28.55,139.48,28.55z"/>
	<path d="M172.07,266.08c0,0-9.45,11.49-14.81,16.6c-5.36,5.11-14.04,16.85-19.15,18.38c-5.11,1.53-13.79,2.55-18.64,0
		s-10.21-4.34-14.81,0.51c-4.6,4.85-2.81,7.4,2.3,7.91c5.11,0.51,9.89-2.04,16.69,0c6.8,2.04,16.24,0.39,21.1,0.07
		c4.85-0.32,28.09-0.07,32.68-0.32c4.6-0.26,4.52-8.17-1.57-8.43c-6.09-0.26-10.69,2.04-16.56,2.81c-5.87,0.77-9.19,1.02-1.53-6.13
		c7.66-7.15,25.02-27.04,25.02-27.04L172.07,266.08z"/>
	<path d="M167.65,236.38c0,0-4.09,21.79,0,31.32c4.09,9.53,13.28,11.23,18.38,2.04c5.11-9.19,8.51-20.09,8.51-20.09"/>
</g>
<g id="mosquito">
</g>
<g id="mallard_x5F_duck">
</g>
<g id="frog">
</g>
<g id="cricket">
</g>
<g id="canada_x5F_goose">
</g>
<g id="coyote">
</g>
<g id="birds">
</g>
<g id="owl">
</g>
<g id="fox">
</g>
</svg>
