<?xml version="1.0" encoding="utf-8"?>
<!-- Generator: Adobe Illustrator 23.0.3, SVG Export Plug-In . SVG Version: 6.00 Build 0)  -->
<svg version="1.1" xmlns="http://www.w3.org/2000/svg" xmlns:xlink="http://www.w3.org/1999/xlink" x="0px" y="0px"
	 viewBox="0 0 331.2 331.2" style="enable-background:new 0 0 331.2 331.2;" xml:space="preserve">
<style type="text/css">
	.st0{display:none;}
</style>
<g id="woodpecker">
</g>
<g id="turkey" class="st0">
</g>
<g id="raven">
</g>
<g id="mosquito">
</g>
<g id="mallard_x5F_duck">
</g>
<g id="frog">
</g>
<g id="cricket">
</g>
<g id="canada_x5F_goose">
	<path d="M161.35,240.46c0,0,2.72,7.66,3.23,13.45c0.51,5.79,1.02,37.45,1.02,37.45s13.79,2.89,21.79,5.45s30.47,2.55,30.47,2.55
		s3.4-2.72-2.89-3.06c-6.3-0.34-6.3-0.51-8.68-2.04s-4.29-0.94-9.98-0.55c-5.68,0.38-17.64,0.23-18.64-2.5
		c-1-2.73-4.07-15.5-4.41-18.73s-0.34-13.11,1.11-18.38s1.28-7.32,1.45-9.87c0.17-2.55,4.09-8,4.09-8"/>
	<path d="M293.78,67.19c0,0,0.51-8.17-6.98-16.34c-7.49-8.17-4.09-8.34-18.21-12.77c-14.13-4.43-19.74,2.72-26.89,10.38
		c-7.15,7.66-12.43,15.49-15.66,28.26c-3.23,12.77-3.91,23.66,0,35.91c3.91,12.26,7.66,21.11,2.21,20.77s-11.87-8.51-36.26-8.77
		c-24.38-0.26-58.34,1.91-68.17,6.51c-9.83,4.6-73.79,58.34-79.02,62.17s-29.36,26.81-29.36,26.81s3.7,2.68,7.28,2.3
		s4.09-1.28,8.55-2.55s6-3.06,6-1.66c0,1.4,2.55-1.4,6.13-1.53s5.11-2.17,7.66-0.89c2.55,1.28,7.4,0.13,9.83-1.79
		c2.43-1.91,2.04-0.38,3.96,0.51s13.4-10.34,13.4-10.34s3.7,4.09,10.09,6.89c6.38,2.81,16.98,8.94,25.4,14.94
		s12.13,9.11,30.94,11.74c18.81,2.64,41.45,3.49,55.23,1.11s43.66-12.51,59.83-34.3s17.87-43.06,14.98-54.64
		s-10.04-21.79-17.53-32.85c-7.49-11.06-13.45-24.51-6.72-34.81s8.77-8.6,11.83-8.26c3.06,0.34,16.26-0.77,22.3-2.3
		C290.63,70.16,293.97,69.93,293.78,67.19z"/>
	<path d="M288.9,53.42c0,0,6.23,5.21,9.17,7.13c2.94,1.91,5.87,3.57,6,4.85s12.26,3.32,10.6,9.45c0,0-3.7,1.4-8.43,0
		c-4.72-1.4-21.66-3.15-21.66-3.15s3.15-1.45,1.23-3.36s-0.77-3.7,0.89-3.89s4.98-1.73,3.57-4.53
		C288.88,57.1,286.75,54.59,288.9,53.42z"/>
	<path d="M285.95,66.16c0,0,5.62,1.66,11.87,3.19c6.26,1.53,11.62,4.72,13.53,4.6"/>
	<path d="M294.63,62.72c0,0,3.32,3.83,6.38,4.21c3.06,0.38,0.51-2.17-2.36-3.45s-4.86-2.17-4.86-2.17"/>
	<path d="M272.03,45.99c0,0,7.91-1.91,8.3,2.94c0.38,4.85-3.06,4.6-5.11,3.83C273.18,51.99,269.68,51.97,272.03,45.99z"/>
	<path d="M217.86,169.31c0,0-31.66,25.87-54.13,29.62c-22.47,3.74-40.51,6.47-53.45,2.04c-12.94-4.43-17.62-1.66-21.57-2.43
		c-3.96-0.77-11.36,1.15-15.7-2.94c0,0-12.64-0.89-19.53-2.3c-6.89-1.4-11.74-2.68-17.11-1.02s-16.47,8.3-16.47,8.3
		s0.26-3.45,1.79-4.98l-4.21,5.11c0,0-1.79-3.19,1.4-5.74c0,0-5.49,2.43-5.87,4.6c0,0-1.91-2.55,3.96-8.17l-3.19,1.15
		c0,0-0.77-3.57,5.74-7.66c6.51-4.09,8.55-6.89,13.02-9.57c4.47-2.68,7.45-2.77,11.19-7.7c3.74-4.94,7.66-12.94,14.13-15.32
		s28.26-7.49,38.64-11.74c10.38-4.26,11.91-3.23,18.04-5.96c6.13-2.72,36.26-9.19,56.17-9.7c19.91-0.51,20.62-6.17,42.82,2.79"/>
	<path d="M137.86,224.29c0,0,10.21,12.77,11.91,16.51c0,0-0.51,4.94,1.02,12.6c1.53,7.66,4.94,13.96,5.96,20.94
		c1.02,6.98,2.21,24.51,2.21,24.51s13.45-3.23,17.87,0c4.43,3.23,5.45,5.79,5.45,5.79s7.49-1.7,14.3-1.36
		c6.81,0.34,14.3-0.85,14.3-0.85s-6.64-4.09-11.74-7.49c-5.11-3.4-24.85-3.91-26.38-3.91c-1.53,0-4.44-7.15-7.15-12.43
		c-2.72-5.28-5.61-12.09-5.1-17.7c0.51-5.62,2.89-10.21,2.89-14.47c0-4.26,2.21-12.77,2.21-12.77"/>
</g>
<g id="coyote">
</g>
<g id="birds">
</g>
<g id="owl">
</g>
<g id="fox">
</g>
</svg>
