<?xml version="1.0" encoding="utf-8"?>
<!-- Generator: Adobe Illustrator 23.0.3, SVG Export Plug-In . SVG Version: 6.00 Build 0)  -->
<svg version="1.1" xmlns="http://www.w3.org/2000/svg" xmlns:xlink="http://www.w3.org/1999/xlink" x="0px" y="0px"
	 viewBox="0 0 331.2 331.2" style="enable-background:new 0 0 331.2 331.2;" xml:space="preserve">
<style type="text/css">
	.st0{display:none;}
</style>
<g id="woodpecker">
</g>
<g id="turkey" class="st0">
</g>
<g id="raven">
</g>
<g id="mosquito">
</g>
<g id="mallard_x5F_duck">
</g>
<g id="frog">
	<path d="M244.95,146.4c0,0,8.15,7.09,9.34,9.13c1.19,2.04,15.66-1.02,19.23,2.21s13.17,4.26,17.9,2.89
		c4.73-1.36,8.14-3.23,10.52-3.06s11.06-0.68,10.89,2.04s-0.17,6.98-5.11,7.66c-4.94,0.68-21.45,4.6-21.45,4.6s3.4,4.77,6.47,5.96
		c3.06,1.19,9.02,3.06,9.7,5.96c0.68,2.89,11.57,1.7,9.36,6.81s-2.21,7.15-7.66,6.47s-6.3,0.34-9.19-5.79
		c-2.89-6.13-3.23-6.81-10.38-10.21c-7.15-3.4-13.79-11.4-17.19-11.4s-12.6,1.19-12.6,1.19s1.02,9.53,5.45,12.09
		c4.43,2.55,9.53,6.47,8,10.21c-1.53,3.74-5.45,7.32-10.04,5.11c-4.6-2.21-5.11-3.91-4.94-9.7c0.17-5.79-11.57-13.28-13.62-13.62
		c-2.04-0.34-22.98,6.3-28.09,9.87c-5.11,3.57-17.02,5.79-17.02,5.79l6.47-41.02C201.01,149.57,234.76,142.37,244.95,146.4z"/>
	<path d="M312.75,63.36c0,0-8.43-12-11.74-11.74c-3.32,0.26-9.19,2.55-14.3,0s-8.68-1.53-12.26-6.89
		c-3.57-5.36-9.7-13.79-22.47-10.47c-12.77,3.32-6.89,9.96-21.19,16.09c-14.3,6.13-45.96,14.04-54.64,16.34s-34.21,1.53-40.34,2.55
		c-6.13,1.02-32.94,14.81-45.96,22.47s-45.45,33.45-54.38,36.77c-8.94,3.32,37.28,62.81,63.06,70.47c25.79,7.66,51.57,9.7,76.6-2.81
		s46.21-40.09,57.96-45.19c11.74-5.11,21.7-6.64,26.81-13.28c5.11-6.64,12.26-13.79,14.3-17.11c2.04-3.32,0.51-8.43,3.06-9.96
		s2.81-6.13,8.94-8.68S325.26,84.04,312.75,63.36z"/>
	<path d="M13.5,147.44c0,0,1.3,18.3,4.62,29.79s7.66,25.53,12.26,29.11c4.6,3.57,9.45,8.43,9.19,12.51
		c-0.26,4.09-3.79,13.79-5.22,15.06s-3.98,5.74-6.91,7.79c-2.94,2.04-7.66,2.3-6.26,4.98s5.11,5.74,8.68,5.11
		c3.57-0.64,5.87-2.04,5.74-4.72s2.3-3.06,5.11-6s5.11-6.38,5.11-6.38s1.51,9.45,2.99,15.83c1.48,6.38,1.35,12.26,0.71,13.66
		c-0.64,1.4-4.85,3.96-2.68,9.19s7.15,4.98,11.11,3.96s3.32-5.62,2.55-10.47c-0.77-4.85-0.26-6.26-0.26-6.26s2.68,4.09,8.43,2.3
		s3.06-6.13,2.94-7.91c-0.13-1.79-3.96-2.94-6-8.17c-2.04-5.23-3.45-12.13-3.06-13.66c0.38-1.53,5.36-1.91,7.53,1.53
		c2.17,3.45,9.57,3.45,11.62,2.04c2.04-1.4,4.98-6.51,0.77-7.79c-4.21-1.28-7.91-1.79-12-7.66C66.37,215.4,18.84,120.2,13.5,147.44z
		"/>
	<path d="M64.33,193.31c0,0,0-28.6-17.62-52.6s-22.47-23.23-25.28-20.17c-2.81,3.06-12.51,9.19-12.51,14.04
		c0,4.85,17.62,41.11,21.96,51.83s16.85,34.47,33.45,37.79c16.6,3.32,24-14.07,24.26-22.47c0.94-30.89-14.98-43.32-31.57-55.57"/>
	<path d="M230.21,152.5c0,0-4.52,8.8-14.99,19.32c-10.47,10.52-17.36,18.18-17.11,23.8s4.85,7.15,10.72,31.66s4.6,29.62,11.49,28.85
		s11.49,0,13.53-4.85c2.04-4.85,8.94-8.43,11.23-4.6c2.3,3.83-0.51,7.29-4.6,9.52c-4.09,2.23-7.66,4.52-7.66,4.52
		s12.51,5.11,18.13,7.15c5.62,2.04,8.94,2.81,17.87,0c8.94-2.81,10.21-1.02,16.85,0.77c6.64,1.79,7.66,8.43,2.3,10.72
		c-5.36,2.3-10.72,1.02-17.11,0c-6.38-1.02-31.91-0.77-35.23,0c0,0,4.09,7.66,7.66,9.45c3.57,1.79,15.06,4.85,13.02,8.17
		c-2.04,3.32-2.3,8.68-6.89,8.17c-4.6-0.51-7.15,0.26-8.94-4.34s-10.47-11.23-17.11-14.04c-6.64-2.81-15.84-5.87-25.28-10.21
		c-9.44-4.34-18.12-6.64-13.27-17.36c0,0-7.91-29.36-7.4-37.79s-1.38-11.49-2.48-14.55s5.54-14.04,6.56-19.4
		c1.02-5.36-0.77-19.15-0.77-19.15"/>
	<path d="M248.41,69.36c0,0,11.11-3.83,15.83,1.66c4.72,5.49,8.68,15.45,2.43,21.19c-6.26,5.74-12.89,9.45-20.04,6
		c-7.15-3.45-12.64-9.57-10.34-16.47S248.41,69.36,248.41,69.36z"/>
	<path d="M244.46,85.19c0,0,3.41-4.6,9.24-6.51s11.45-0.89,11.45-0.89s1.4,3.19-4.6,7.4c-6,4.21-6.89,4.6-12.89,3.57
		S244.46,85.19,244.46,85.19z"/>
</g>
<g id="cricket">
</g>
<g id="canada_x5F_goose">
</g>
<g id="coyote">
</g>
<g id="birds">
</g>
<g id="owl">
</g>
<g id="fox">
</g>
</svg>
