<svg xmlns="http://www.w3.org/2000/svg" viewBox="0 0 291.06 245.76"><defs><style>.cls-1{fill:#231f20;}</style></defs><title>riddick_a-icons-placeholders</title><g id="birds"><path id="bird" class="cls-1" d="M279.83,110.53s-8.89-7.38-16.68-9.3c0,0-.69-13.26-13.4-14.35s-32.14,4-36.92,9.57c0,0-1.64-17.23,7.65-38.7s20.93-34.87,20.93-34.87-16.82.55-33.23,18.6c0,0-1-6.7,1.09-10.53,0,0-13.4,3.42-20.65,20.1a55.92,55.92,0,0,1,1.1-12.58S173.31,54.33,163.6,84.69c0,0-68.1-25.3-76.58-36.65,0,0-13.26,11.35,14.77,29.54a9,9,0,0,1-9.16-2.19s3,11.62,16.68,20.1c0,0-3.28,1.37-8.07-.41a29.86,29.86,0,0,0,15.18,16.14s-5.33,10.8-30.35,11.21-71.79-5.74-71.79-5.74,2.73,12,25.16,17.36c0,0,19.28,2.74-36.38,6.29,0,0,12.31,14.63,40.89,11.35s42.66-5.6,55.79-2.46,27.21,16.41,48.68,20.51,47.18,4.24,61.81-10.53,17.77-31.58,30.08-34.52,18.32-7.32,20.51-10S279.83,110.53,279.83,110.53Z"/></g></svg>