<?xml version="1.0" encoding="utf-8"?>
<!-- Generator: Adobe Illustrator 23.0.3, SVG Export Plug-In . SVG Version: 6.00 Build 0)  -->
<svg version="1.1" xmlns="http://www.w3.org/2000/svg" xmlns:xlink="http://www.w3.org/1999/xlink" x="0px" y="0px"
	 viewBox="0 0 331.2 331.2" style="enable-background:new 0 0 331.2 331.2;" xml:space="preserve">
<style type="text/css">
	.st0{display:none;}
</style>
<g id="woodpecker">
</g>
<g id="turkey" class="st0">
</g>
<g id="raven">
</g>
<g id="mosquito">
</g>
<g id="mallard_x5F_duck">
</g>
<g id="frog">
</g>
<g id="cricket">
</g>
<g id="canada_x5F_goose">
</g>
<g id="coyote">
</g>
<g id="birds">
</g>
<g id="owl">
	<path d="M125.78,25.99c0,0-17.53-0.68-28.6,3.4S83.9,50.67,81.86,57.31c-2.04,6.64-3.06,25.02,2.21,36.43s-2.38,7.32-0.85,25.19
		s20.6,64.34,26.55,74.38c5.96,10.04,12.09,19.4,14.64,27.06c2.55,7.66,4.09,23.49,25.19,24.68c21.11,1.19,94.81,19.06,94.81,19.06
		s-27.66-128-33.79-143.32s-8.43-19.4-19.4-29.36s-9.7-8.81-13.02-15.7c-3.32-6.89-2.55-20.43-9.96-29.87
		C160.84,36.42,151.73,25.91,125.78,25.99z"/>
	<path d="M189.78,237.48c0,0,14.07,42.13,14.85,50.81c0.78,8.68,2.43,20.6,9.21,24.6c0,0,3.13,1.36,1.74-4.68
		c0,0,2.78,7.4,5.65,5.53c2.87-1.87,2.61-2.72,2.61-2.72s1.82,5.45,4.43,5.02c2.61-0.43,3.82-2.21,3.82-2.21s4.52,2.86,6.86,2.24
		c2.35-0.62,4.43-1.81,4.43-3.34c0,0,1.65-4.85,3.65-2.72s3.91,2.81,4.34-0.34c0,0,2,2.81,4.34,1.96c2.35-0.85,2.35-2.47,1.74-4.68
		c-0.61-2.21-1.23-5.11,0.34-3.83c1.57,1.28,4.35,2.13,3.83-2.04c-0.52-4.17-6.95-13.7-8.16-19.06c-1.22-5.36-4.26-21.7-4.26-21.7
		L189.78,237.48z"/>
	<path d="M126.6,59.16c0,0,0,2.94-3.06,2.43c-3.06-0.51-3.06-3.7-7.79-8.94S110,47.93,105.41,41.8c-4.6-6.13-9.7-9.45-14.81-12.26
		s-14.3-10.6-14.17-16.09s4.6-3.19,4.6-3.19S80,5.04,84.09,6.82s9.96,9.45,9.96,9.45s-4.85-6.51-1.79-5.49s11.23,4.34,13.15,7.15
		s-2.75,2.77-1.25,9.11c0,0,6.1-2.47,22.44-2.47s26.02,5.36,26.02,5.36s2.06-5.49,3.98-6c1.91-0.51,18.13-1.15,21.83,0.51
		c3.7,1.66,4.09,3.45,1.66,4.6c0,0,5.74,0.77,5.11,2.04c-0.64,1.28-3.19,5.87-8.94,6.38s-11.05,2.66-12.73,3.14
		c-0.45,0.13-0.78-6.74-8.44-0.87c-7.66,5.87-8.64,7.59-14.07,12.66C136.51,56.61,129.11,67.08,126.6,59.16z"/>
	<path d="M123.05,74.67c0,0,0.43-9.96,3.15-10.47c2.72-0.51,4,2.21,3.91,6.13s-0.85,10.3-2.13,12c-1.28,1.7-1.87,2.13-1.87,2.13
		s-0.94-3.91-1.53-6.04C123.99,76.29,123.05,74.67,123.05,74.67z"/>
	<path d="M200.92,101.53c0,0,14.64,7.02,25.45,24.12c10.81,17.11,18.72,41.87,21.53,55.66c2.81,13.79,21.19,51.06,23.49,60
		c2.3,8.94,4.34,26.89,4.34,26.89l-3.57,1.96l-1.02,6.64l-7.63-11.54c0,0-39.86-70.41-40.88-86.75c-1.02-16.34-11.23-36-14.04-46.47
		c-2.81-10.47-14.81-26.55-14.81-26.55"/>
	<path d="M109.01,109.31c0,0-22.53,2.28-25.56,11.61c-3.03,9.33,0.03,35.88,10.24,53.75s20.43,17.36,43.15,40.09
		s102.64,51.06,113.11,53.11c10.47,2.04,19.91-5.62,19.91-11.74s-13.28-26.04-21.45-34.21c-8.17-8.17-21.19-45.7-27.32-51.57
		c-6.13-5.87-33.7-23.49-46.72-35.74c-13.02-12.26-19.66-16.09-19.66-16.09"/>
	<path d="M96.88,231.17c0,0-5.99-2.39-7.91-1.49c-1.91,0.9-4.09,6.65-4.09,6.65s3.44-2.65,6-1.2"/>
	<path d="M108.88,265.31c0,0-1.15,3.7-2.94,6c-1.79,2.3-2.3,3.45-2.3,3.45s3.96-1.28,6.26-3.32c2.3-2.04,4.98-4.98,4.98-4.98
		S110.18,262.07,108.88,265.31z"/>
	<path d="M142.58,256.12c0,0,3.32,6.77,1.79,9.45c-1.53,2.68-1.79,3.87-1.79,3.87s5.23-3.49,5.23-7.57c0-4.09,1.53-7.79,0-9.45
		C146.29,250.76,142.33,250.63,142.58,256.12z"/>
	<path d="M176.67,259.82c0,0,1.66,3.32,0.77,5.87s-2.3,5.49-2.3,5.49s4.09-2.43,4.6-5.11c0.51-2.68,1.8-5.26,1.41-9.27
		c-0.39-4.01-2.31-6.41-3.71-5.4C176.03,252.42,173.92,252.65,176.67,259.82z"/>
	<path d="M133.9,229.7c0,0-5.32-0.26-5.85,1.79c0,0-5.13-0.38-6.41,3.19c0,0-5.62-2.17-8.68,0c-3.06,2.17-6.51,0.13-9.57-1.4
		c-3.06-1.53-6.38-2.81-8.55-1.66c-2.17,1.15-5.49,3.32-3.45,5.87c2.04,2.55,4.21,0.26,8.04,2.94c3.83,2.68,7.15,8.3,11.62,9.96
		c4.47,1.66,1.4,2.68-0.77,3.32c-2.17,0.64-4.34,4.47-3.45,7.02s0.51,4.6,2.04,4.6c1.53,0,1.91-0.38,3.45,0.64
		c1.53,1.02-0.38,3.1,2.81,2.25s3.06-2.51,5.11-3.78c2.04-1.28,6.51-0.38,8.17-2.43c1.66-2.04,3.06-2.94,4.72-2.43
		c1.66,0.51,4.98-0.89,7.02-0.38c2.04,0.51,3.96-0.64,3.96-2.04c0-1.4-0.89-4.6,1.15-4.34c2.04,0.26,2.68,4.34,3.45,2.04
		s-0.77-5.11,1.28-4.09c2.04,1.02,6.13,1.4,9.7,3.32c3.57,1.91,7.79,2.94,11.49,5.23c3.7,2.3,6.26,2.43,6.26,0.51
		c0-1.91-2.55-4.6,0-5.74c2.55-1.15,3.57,2.68,4.21,3.83c0.64,1.15,3.83,1.79,6.26,1.4c2.43-0.38,0.89-9.06-1.4-12"/>
	<path d="M102.75,50.84c0,0-0.83,7.02,4.02,8.55c4.85,1.53,9.92,0.38,10.99-4.28c0,0-6.78-6.06-9.08-6.13
		C106.39,48.93,102.75,50.84,102.75,50.84z"/>
	<path d="M137.35,56.21c0,0,0.51,4.4,5.3,5.23c4.79,0.83,8.17-3.32,8.3-4.28s1.4-4.85-1.34-6.64c-2.74-1.79-5.74,0.89-5.74,0.89
		L137.35,56.21z"/>
</g>
<g id="fox">
</g>
</svg>
