<svg xmlns="http://www.w3.org/2000/svg" viewBox="0 0 188.94 245.76"><defs><style>.cls-1{fill:#231f20;}</style></defs><title>riddick_a-icons-placeholders</title><g id="owl"><path id="owl-2" data-name="owl" class="cls-1" d="M42.53,19.38c-.42.05-.83.12-1.25.2-2.09.41-9.16,1.58-12.68-.72-4.17-2.72-4.34-8.85-4-11.24,0,0-2.47.69-3.24,1.88s-1.19.42-1.45-.6-1.19-2.72-3.31-.59-3.58,5-3.32,9.78,2.89,6.73,5.1,7.07,6.47.93,4.6,2.63-5.87,4.77-5.87,11.92-3.32,36.94-.51,46.21.76,10.3,3.91,16.26,6.64,11.06,6.47,15.4S30.64,141,33.7,149.92s10.73,20.17,17.28,27,6.81,7.07,9.45,7.92,5.7,2.55,4.59,5-2.81,9.87-3.57,13.53-1,1.7-3.24,3.91.34,2.9-3.91,3.32-7.15.09-10.39.94-2.63.6-5.7,0-6.3-2-11.49,4.85c0,0,5.54-3.91,7.83-3.32s2.13,3,3.58,3.83,6.55-.34,7.32,0a6.31,6.31,0,0,0-.19,3.83s.83-3,2.55-4,2.07-1.25,2.26.32-.19,3.95,3.71,2.61,8.2-3,9.6-3.38,1,.29,2.68.7a2.58,2.58,0,0,0,3.16-1.43c.39-.9.26-4.06,5.4-4.41s4.11-1,4.56-1.5,1.41-.44,2.14.77a22.88,22.88,0,0,0,2.36,2.93,6.28,6.28,0,0,0-1.28-4.21c-1.46-1.56-3.31-2.26-4.69-3.32s-1.11-3-.83-4.75,2.91-3.16,4.76-3.54,5.55,4.11,5.87,5.42-3.7,7.82-4.21,13.63.47,4.23-4.07,4.64-14,.59-16.36.85a8,8,0,0,0-6.61,5.06s2.38-3,5-3,3.32.19,3.24,1.76,2.27,2.37,7.08,2.32,5.87-.14,4.94.88a4.09,4.09,0,0,0-.91,2.56s1.48-2.9,3.3-3.62,2.51.67,2.55,2.15c.07,1.9,4.47,2.52,7.54-.76a6.1,6.1,0,0,1,4.93-1.82c3,.22,6.63.66,8.28-1a5.4,5.4,0,0,1,4.5-1.5c1.21,0,1.66-1.34,1.79-2.2s.86-1.34,1.56-.42,3.29,2.52,4.12,5.59c0,0-.35-5.21-3-6.93s-7.53-2-8.68-1.44-1.22,1.09-2.65.55-1.53-1.44-.51-2,1.43-.49,2.14.57a14.33,14.33,0,0,1-.28-3.86c.21-1.53,2.73-10.12,3.4-13s.74-4.6,1.89-4.34,2.55,1.75,5.1.83,3.45-4.25,4.95-2.94.61,2.55,1.37,3.61,3.58.28,5.11,2.2,6.54,10.59,8.77,12.67,6.13,2.3,7.44.67.16-4.34,1.5-4.37.86.89,2.65.86,2.3-.77,3.35-1.88,10.21-1.44,13.6.83,10.72,9.12,16.27,9.7,5.49-1.06,5.11-5.24-7.62-17.62-15.79-30.9-18.72-37.87-19.23-40.43-1.19-10.93-5.62-20.23-16.51-23.34-25-29.13-8.26-4.34-12.17-11.91S98.46,69.92,97.53,66,95.06,63.2,94,60.31s-.59-5.62-6.38-16.94S76.09,26.52,74,25.33s-3.49-.6-4.43-2.22-3.36-4.93-4.34-5.19c0,0,5.19-4.42,3.75-9.53S65.45,2.6,63.45,2.9s-6.81.3-6.81.3,2.85.64,2.85,2.51-.89,2-1.28,1A4.11,4.11,0,0,0,56.47,4.9a13.59,13.59,0,0,0-.38,4.47c.29.77,1.14.94-.09,4.08s-1.87,3.62-6.68,4.69C45.91,18.89,43.59,19.24,42.53,19.38Z"/></g></svg>